<svg height="100%" stroke-miterlimit="10" style="fill-rule:nonzero;clip-rule:evenodd;stroke-linecap:round;stroke-linejoin:round;" version="1.1" viewBox="42.3583 29.3806 315.283 341.239" width="100%" xml:space="preserve" xmlns="http://www.w3.org/2000/svg" xmlns:xlink="http://www.w3.org/1999/xlink">
<defs/>
<g id="pause">
<g opacity="1">
<g opacity="1">
<path d="M149.211 61.1039C137.578 21.3229 61.8806 44.0206 58.2202 77.8427C49.3509 159.796 53.3625 243.334 58.3552 325.244C60.9302 367.49 157.698 374.841 159.654 327.067C162.187 265.188 161.154 236.6 159.219 174.7C158.38 147.852 162.259 105.722 149.211 61.1039Z" fill="#f15389" fill-rule="nonzero" stroke="none"/>
<path d="M114.812 29.9375C98.0536 30.2382 80.4787 36.3783 67.1875 46.5938C60.6679 51.6046 54.9373 57.9018 51.4375 65.4062C50.1901 68.0809 49.2315 70.8852 48.6562 73.7812C48.2075 76.0404 48.0231 78.3374 47.7812 80.625C47.4607 83.6581 47.1871 86.713 46.9062 89.75C45.7462 102.295 44.8745 114.856 44.2188 127.438C41.6008 177.663 42.9092 228.048 45.4062 278.25C46.0044 290.275 46.6844 302.293 47.375 314.312C47.5471 317.308 47.7294 320.318 47.9062 323.312C48.0628 325.963 48.2138 328.579 48.75 331.188C49.9079 336.82 52.4104 342.109 55.875 346.688C61.9816 354.757 70.7709 360.429 80.0625 364.188C89.6967 368.084 100.127 370.077 110.5 370.375C119.115 370.623 127.823 369.693 136.094 367.219C149.957 363.072 162.442 354.25 167.625 340.281C168.698 337.39 169.418 334.37 169.812 331.312C170.141 328.77 170.178 326.214 170.281 323.656C170.406 320.577 170.544 317.486 170.656 314.406C171.129 301.409 171.472 288.412 171.625 275.406C171.871 254.439 171.508 233.491 170.938 212.531C170.577 199.274 170.063 186.008 169.75 172.75C169.416 158.605 169.943 144.459 169.594 130.312C169.152 112.415 167.593 94.5011 164.031 76.9375C163.248 73.0748 162.381 69.2565 161.406 65.4375C161.033 63.9749 160.654 62.5171 160.25 61.0625C160.114 60.5733 160.252 61.0451 159.438 58.1875C158.998 56.6476 158.203 55.3226 157.219 54.1875C157.027 53.637 156.375 51.788 155.75 50.625C152.793 45.1199 148.446 40.464 143.188 37.0938C134.804 31.7207 124.657 29.7609 114.812 29.9375ZM118.281 50.125C124.895 50.4525 132.187 52.3125 136.469 57.75C137.383 58.9107 138.134 60.1756 138.719 61.5312C138.757 61.6208 138.775 61.7225 138.812 61.8125C138.861 62.5522 138.788 63.2895 139 64.0312C139.398 65.4239 139.329 64.9624 139.406 65.4062C139.485 65.8573 139.659 66.2776 139.781 66.7188C140.146 68.0309 140.475 69.3681 140.812 70.6875C141.702 74.1648 142.503 77.6703 143.219 81.1875C145.35 91.6598 146.729 102.252 147.531 112.906C148.346 123.728 148.557 134.588 148.562 145.438C148.567 154.707 148.369 163.982 148.594 173.25C148.89 185.484 149.368 197.736 149.719 209.969C150.342 231.707 150.745 253.44 150.531 275.188C150.399 288.616 150.066 302.048 149.594 315.469C149.485 318.56 149.371 321.628 149.25 324.719C149.079 329.089 148.585 332.927 146.125 336.656C140.725 344.841 129.556 348.146 120.344 349.188C115.024 349.789 109.625 349.701 104.312 349.062C99.0878 348.434 93.9305 347.255 89 345.406C82.0901 342.816 74.7896 338.702 70.9688 332.125C69.9126 330.307 69.1779 328.296 68.8438 326.219C68.6227 324.844 68.5855 323.45 68.5 322.062C68.3684 319.928 68.2254 317.791 68.0938 315.656C67.4615 305.406 66.8815 295.16 66.3125 284.906C63.5407 234.957 61.9509 184.85 64.0938 134.844C64.6939 120.837 65.6004 106.837 66.875 92.875C67.1833 89.4978 67.4911 86.1229 67.8438 82.75C68.0184 81.0792 68.1097 79.3689 68.4375 77.7188C68.7957 75.9155 69.4858 74.1986 70.375 72.5938C73.2589 67.3889 78.0295 63.3082 82.9688 60.125C93.124 53.5802 106.145 49.524 118.281 50.125Z" fill="#f15389" stroke="none"/>
</g>
<g opacity="1">
<path d="M335.078 61.1039C323.444 21.3229 247.747 44.0206 244.087 77.8427C235.217 159.796 239.229 243.334 244.222 325.244C246.797 367.49 343.565 374.841 345.52 327.067C348.054 265.188 347.02 236.6 345.085 174.7C344.246 147.852 348.126 105.722 335.078 61.1039Z" fill="#f15389" fill-rule="nonzero" stroke="none"/>
<path d="M300.688 29.9375C283.929 30.2382 266.354 36.3783 253.062 46.5938C246.543 51.6046 240.781 57.9018 237.281 65.4062C236.034 68.0809 235.107 70.8852 234.531 73.7812C234.082 76.0404 233.898 78.3374 233.656 80.625C233.336 83.6581 233.031 86.713 232.75 89.75C231.59 102.295 230.75 114.856 230.094 127.438C227.476 177.663 228.784 228.048 231.281 278.25C231.879 290.275 232.559 302.293 233.25 314.312C233.422 317.308 233.604 320.318 233.781 323.312C233.938 325.963 234.089 328.579 234.625 331.188C235.783 336.82 238.285 342.109 241.75 346.688C247.857 354.757 256.646 360.429 265.938 364.188C275.572 368.084 286.002 370.077 296.375 370.375C304.99 370.623 313.698 369.693 321.969 367.219C335.832 363.072 348.285 354.25 353.469 340.281C354.541 337.39 355.293 334.37 355.688 331.312C356.016 328.77 356.053 326.214 356.156 323.656C356.281 320.577 356.388 317.486 356.5 314.406C356.972 301.409 357.316 288.412 357.469 275.406C357.715 254.439 357.383 233.491 356.812 212.531C356.452 199.274 355.938 186.008 355.625 172.75C355.291 158.605 355.787 144.459 355.438 130.312C354.995 112.415 353.468 94.5011 349.906 76.9375C349.123 73.0748 348.225 69.2565 347.25 65.4375C346.877 63.9749 346.497 62.5171 346.094 61.0625C345.958 60.5733 346.096 61.0451 345.281 58.1875C344.848 56.6692 344.058 55.3755 343.094 54.25C342.894 53.6757 342.259 51.8054 341.625 50.625C338.668 45.1199 334.321 40.464 329.062 37.0938C320.679 31.7207 310.532 29.7609 300.688 29.9375ZM304.156 50.125C310.77 50.4525 318.03 52.3125 322.312 57.75C323.227 58.9107 323.977 60.1756 324.562 61.5312C324.61 61.6402 324.642 61.7653 324.688 61.875C324.739 62.5943 324.669 63.3103 324.875 64.0312C325.273 65.4239 325.172 64.9624 325.25 65.4062C325.329 65.8573 325.534 66.2776 325.656 66.7188C326.021 68.0309 326.35 69.3681 326.688 70.6875C327.577 74.1648 328.378 77.6703 329.094 81.1875C331.225 91.6598 332.573 102.252 333.375 112.906C334.19 123.728 334.432 134.588 334.438 145.438C334.442 154.707 334.244 163.982 334.469 173.25C334.765 185.484 335.243 197.736 335.594 209.969C336.217 231.707 336.62 253.44 336.406 275.188C336.274 288.616 335.941 302.048 335.469 315.469C335.36 318.56 335.246 321.628 335.125 324.719C334.954 329.089 334.429 332.927 331.969 336.656C326.569 344.841 315.431 348.146 306.219 349.188C300.899 349.789 295.5 349.701 290.188 349.062C284.963 348.434 279.774 347.255 274.844 345.406C267.934 342.816 260.633 338.702 256.812 332.125C255.756 330.307 255.022 328.296 254.688 326.219C254.466 324.844 254.461 323.45 254.375 322.062C254.243 319.928 254.1 317.791 253.969 315.656C253.337 305.406 252.757 295.16 252.188 284.906C249.416 234.957 247.826 184.85 249.969 134.844C250.569 120.837 251.444 106.837 252.719 92.875C253.027 89.4978 253.366 86.1229 253.719 82.75C253.893 81.0792 253.953 79.3689 254.281 77.7188C254.639 75.9155 255.33 74.1986 256.219 72.5938C259.103 67.3889 263.873 63.3082 268.812 60.125C278.968 53.5802 292.02 49.524 304.156 50.125Z" fill="#f15389" stroke="none"/>
</g>
</g>
</g>
</svg>
