<svg height="100%" stroke-miterlimit="10" style="fill-rule:nonzero;clip-rule:evenodd;stroke-linecap:round;stroke-linejoin:round;" version="1.1" viewBox="31.4606 9.06754 337.079 381.865" width="100%" xml:space="preserve" xmlns="http://www.w3.org/2000/svg" xmlns:xlink="http://www.w3.org/1999/xlink">
<defs/>
<g id="reset">
<path d="M306.332 202.694C306.332 202.694 364.759 183.249 360.296 223.251C354.647 273.885 242.336 295.204 242.336 295.204C242.336 295.204 164.655 181.676 217.71 158.125C241.189 147.703 256.814 173.69 268.411 190.774C268.411 190.774 318.959 95.134 224.836 91.2338C174.09 89.1311 153.596 118.149 144.974 153.497C130.404 213.228 179.168 282.822 211.766 318.051C230.133 337.9 147.405 397.405 119.758 379.675C92.1103 361.944 33.43 256.935 39.9645 177.316C44.8304 118.03 77.8196 42.0285 149.858 24.3481C233.81 3.74416 292.562 30.5559 315.627 58.9024C354.995 107.286 319.254 183.762 306.332 202.694Z" fill="#f15389" fill-rule="nonzero" opacity="1" stroke="#f15389" stroke-linecap="butt" stroke-linejoin="round" stroke-width="16"/>
</g>
</svg>
