<svg height="100%" stroke-miterlimit="10" style="fill-rule:nonzero;clip-rule:evenodd;stroke-linecap:round;stroke-linejoin:round;" version="1.1" viewBox="0 0 400 400" width="100%" xml:space="preserve" xmlns="http://www.w3.org/2000/svg" xmlns:xlink="http://www.w3.org/1999/xlink">
<g id="Main">
<g opacity="1">
<path d="M171.36 34.3479C128.559 42.1299 104.738 94.0108 106.705 133.35C106.958 138.405 103.472 144.398 102.665 149.513C100.884 160.793 101.315 172.494 101.856 183.861C102.058 188.099 103.174 218.679 104.281 220.229C107.337 224.507 114.857 223.866 119.232 223.866C119.488 223.866 125.393 225.172 126.91 223.866C127.789 223.109 128.663 198.117 128.93 194.771C130.903 170.117 132.135 141.526 143.882 119.207C146.554 114.13 151.758 111.72 155.196 107.488C162.642 98.3235 165.548 85.4179 174.188 76.7773C178.988 71.9773 176.327 74.8963 181.738 73.3931C184.587 72.6017 185.867 71.4332 188.736 70.716C195.802 68.9494 207 71.6614 210.961 78.3937C217.363 89.2774 224.51 105.076 225.912 118.399C227.43 132.824 220.255 148.554 220.255 163.252C220.255 166.121 223.493 188.769 224.7 189.114C226.928 189.751 228.943 178.607 229.145 177.8C231.697 167.59 231.427 157.071 232.781 146.685C234.201 135.805 235.986 123.02 232.781 112.337C229.343 100.877 224.211 89.536 219.851 78.3937C217.258 71.7678 212.493 65.7398 211.365 58.5933C209.428 46.325 217.072 21.4171 196.817 21.4171" fill="#ec5286" fill-rule="nonzero" opacity="1" stroke="none"/>
<path d="M216.463 238.597C216.463 239.405 215.557 239.727 215.001 240.838C213.744 243.353 213.066 246.15 212.577 248.919C212.249 250.776 212.577 252.691 212.577 254.577C212.577 259.723 212.981 264.803 212.981 269.932C212.981 274.221 213.195 278.581 212.981 282.863C212.676 288.966 211.215 294.937 210.961 301.047C210.837 304.011 210.976 307 210.556 309.937C210.362 311.297 209.885 312.611 209.748 313.978C209.368 317.783 209.983 321.942 208.94 325.696C208.182 328.425 206.622 330.868 205.303 333.374C204.066 335.725 202.609 337.954 201.262 340.244C200.559 341.439 199.915 342.668 199.242 343.88C198.568 345.093 198.13 346.469 197.221 347.517C195.525 349.475 192.858 350.495 190.352 351.154C189.024 351.504 187.685 351.962 186.311 351.962C185.069 351.962 183.785 351.709 182.674 351.154C181.564 350.599 180.591 349.723 179.846 348.73C178.942 347.525 178.61 345.974 177.825 344.689C175.631 341.097 172.003 338.886 169.743 335.395C169.023 334.281 168.72 332.944 168.127 331.758C167.507 330.517 166.527 329.442 166.107 328.121C165.185 325.225 165.562 321.887 164.086 319.231C163.34 317.888 162.095 316.882 161.258 315.594C159.66 313.137 158.151 309.913 157.217 307.108C155.386 301.616 154.113 295.973 151.155 290.945C150.511 289.849 150 288.643 149.135 287.712C148.218 286.725 146.954 286.129 145.902 285.287C142.958 282.932 139.318 280.844 137.82 277.206C136.875 274.909 136.869 272.325 136.204 269.932C135.531 267.508 134.576 265.144 134.184 262.658C133.972 261.321 133.991 259.955 133.779 258.618C133.586 257.391 133.095 256.216 132.971 254.981C132.824 253.506 133.042 252.016 132.971 250.536C132.842 247.831 132.447 245.146 132.163 242.454C132.035 241.241 132.387 239.863 131.759 238.817C131.066 237.662 129.704 237.047 128.526 236.393C127.258 235.688 125.862 235.235 124.485 234.776C120.368 233.404 116.992 233.395 112.767 233.16C110.212 233.018 107.474 232.232 105.089 233.16C103.834 233.648 102.604 234.464 101.856 235.584C101.168 236.618 100.747 238.017 101.048 239.221C101.349 240.426 102.625 241.142 103.473 242.05C104.513 243.164 105.744 244.1 106.705 245.283C107.507 246.269 108.185 247.366 108.726 248.515C109.27 249.672 109.475 250.961 109.938 252.152C110.419 253.389 111.281 254.491 111.555 255.789C112.082 258.293 111.134 260.942 111.555 263.467C111.765 264.727 112.568 265.841 112.767 267.103C112.977 268.434 112.7 269.799 112.767 271.144C112.902 273.848 112.918 276.6 113.575 279.226C114.262 281.973 116.062 284.316 117.212 286.904C119.388 291.801 119.788 297.43 122.061 302.259C123.163 304.6 125.215 306.365 126.91 308.321C129.464 311.267 131.622 314.762 132.971 318.423C133.457 319.742 133.92 321.082 134.184 322.464C134.462 323.925 134.296 325.45 134.588 326.909C135.089 329.415 136.278 331.734 137.012 334.182C138.237 338.265 138.727 342.726 140.245 346.709C142.948 353.805 149.315 357.372 153.58 363.277C155.286 365.639 156.591 368.289 158.429 370.55C161.166 373.919 164.677 375.998 168.531 377.824C169.73 378.392 170.885 379.103 172.168 379.44C175.773 380.389 180.204 379.844 183.887 379.844C188.868 379.844 194.007 379.57 198.838 378.228C201.344 377.532 203.644 376.222 206.111 375.399C208.622 374.563 211.35 374.406 213.789 373.379C217.933 371.634 222.853 367.301 225.508 363.681C226.259 362.656 226.766 361.465 227.528 360.448C229.371 357.991 231.545 355.771 233.185 353.175C234.667 350.829 236.1 348.435 237.226 345.901C237.745 344.733 237.92 343.432 238.439 342.264C239.002 340.997 239.865 339.881 240.459 338.627C241.701 336.005 242.733 333.284 243.692 330.546C244.749 327.524 245.308 324.349 246.116 321.251C247.571 315.675 249.548 310.148 251.369 304.684C252.407 301.572 253.294 298.398 254.602 295.39C256.452 291.136 259.007 287.21 260.664 282.863C262.493 278.059 263.889 273.048 265.917 268.316C267.056 265.658 268.664 263.225 269.958 260.638C270.551 259.451 271.219 258.279 271.574 257.001C271.9 255.826 272.494 254.47 271.978 253.364C271.408 252.144 270.038 251.32 268.745 250.94C267.575 250.596 266.259 250.938 265.109 251.344C263.91 251.767 263.068 252.925 261.876 253.364C257.897 254.83 253.682 253.951 250.157 251.748C247.963 250.377 246.228 248.365 244.096 246.899C242.002 245.459 239.904 243.995 237.63 242.858C235.147 241.616 232.49 240.753 229.953 239.625C228.26 238.873 224.577 237.096 222.679 236.797C219.591 236.309 215.284 237.034 215.001 237.605C214.434 238.75 216.463 237.789 216.463 238.597Z" fill="#ec5286" fill-rule="nonzero" opacity="1" stroke="none"/>
<path d="M233.333 22.7728C231.886 22.9615 231.14 22.3197 230.062 22.018C229.041 21.732 228.085 21.2119 227.043 21.0116C225.887 20.7893 224.693 20.8577 223.52 20.76C219.333 20.4111 215.133 20.4564 210.94 20.2568C210.015 20.2127 209.098 19.9611 208.172 20.0052C207.318 20.0458 206.198 19.8464 205.656 20.5084C205.175 21.0962 205.478 22.147 205.908 22.7728C206.488 23.6164 207.535 24.0262 208.424 24.5341C210.068 25.4735 211.794 25.9188 213.456 26.7985C214.717 27.4659 216.555 28.8463 217.733 29.5662C218.47 30.0165 219.163 30.6045 219.998 30.8243C221.382 31.1886 223.451 30.6703 224.778 30.321C227.41 29.6286 229.774 28.4041 232.327 27.5534C233.06 27.3088 233.935 27.46 234.591 27.0501C235.347 26.5776 235.838 25.7657 236.352 25.0373C236.85 24.3319 237.724 23.6287 237.61 22.7728C237.508 22.0064 236.539 21.2514 235.849 21.2632C234.78 21.2815 234.78 22.5841 233.333 22.7728Z" fill="#ec5286" fill-rule="nonzero" opacity="1" stroke="none"/>
<path d="M255.73 25.5142C255.541 25.1997 254.474 24.2343 253.462 24.2825C252.485 24.329 251.337 24.896 250.945 25.7921C250.594 26.5943 251.236 27.5657 251.7 28.3082C252.589 29.7306 254.464 30.2229 255.726 31.3275C256.397 31.9145 256.857 32.7099 257.487 33.3403C258.59 34.4434 260.082 35.0863 261.261 36.108C262.609 37.2758 263.442 38.9595 264.784 40.1337C265.467 40.7311 266.228 41.255 267.048 41.6433C267.84 42.0182 268.773 42.0233 269.564 42.3982C270.384 42.7865 271.036 43.4672 271.829 43.9078C272.551 44.309 273.393 44.4765 274.093 44.9142C274.749 45.3241 275.397 45.8003 275.855 46.4239C276.343 47.09 276.46 47.9663 276.861 48.6883C278.579 51.7801 280.606 54.8532 282.648 57.7462C283.654 59.172 284.958 60.4287 285.667 62.0235C286.295 63.4367 286.015 65.1532 286.674 66.5524C287.382 68.0587 289.001 68.9547 289.945 70.3265C290.412 71.0072 290.141 72.429 290.951 72.591C291.709 72.7426 292.131 71.5294 292.461 70.8298C292.825 70.0559 292.817 69.1563 292.964 68.3137C293.845 63.2466 292.925 59.3087 291.454 54.4753C291.145 53.4604 290.887 52.4218 290.448 51.456C288.45 47.062 283.594 45.1757 280.132 42.1466C277.552 39.889 275.248 37.2626 272.835 34.85C272.205 34.2195 271.453 33.7191 270.822 33.0887C269.555 31.8216 269.019 30.6668 267.552 29.5662C266.256 28.5944 264.583 28.2385 263.023 27.805C260.078 26.9872 254.454 26.1488 254.216 25.5405C254.103 25.2499 255.918 25.8287 255.73 25.5142Z" fill="#ec5286" fill-rule="nonzero" opacity="1" stroke="none"/>
<path d="M236.219 35.9874C234.961 36.3648 234.248 35.1664 233.081 35.1016C231.139 34.9937 229.182 35.3846 227.294 35.8564C225.799 36.2304 224.426 36.9914 223.017 37.6176C220.191 38.8739 216.665 40.6858 214.966 43.4046C213.046 46.4756 213.141 50.7588 213.456 54.2237C213.622 56.0479 214.361 57.7786 214.966 59.5074C215.83 61.9769 216.838 64.343 217.733 66.804C218.377 68.5753 218.868 70.42 219.746 72.0878C220.638 73.7818 221.789 75.3481 222.514 77.1199C222.916 78.1018 223.119 79.1573 223.52 80.1392C224.23 81.8749 225.133 83.5281 226.036 85.1713C226.889 86.7216 227.98 88.1347 228.804 89.7003C231.83 95.4496 233.088 101.985 234.088 108.319C234.513 111.013 235.211 113.668 235.597 116.371C235.947 118.819 235.971 121.213 236.101 123.667C236.18 125.184 236.52 126.68 236.604 128.196C236.752 130.861 236.604 133.579 236.604 136.248C236.604 137.841 236.762 139.442 236.604 141.028C236.155 145.516 234.968 149.962 234.088 154.363C233.054 159.532 232.578 164.698 232.578 169.963C232.578 172.479 232.721 175.014 232.327 177.511C232.07 179.139 231.488 180.698 231.069 182.292C230.872 183.039 230.733 183.801 230.565 184.556C230.398 185.311 229.406 186.411 230.062 186.821C230.828 187.299 231.8 186.272 232.578 185.814C234.51 184.678 236.066 182.632 237.862 181.285C240.063 179.634 242.131 178.155 244.152 176.253C244.843 175.603 245.411 174.817 246.165 174.24C247.861 172.943 248.875 172.986 250.694 171.976C252.219 171.128 253.658 170.106 254.971 168.956C257.097 167.097 258.739 164.842 260.507 162.666C261.605 161.315 262.436 160.234 264.029 159.395C265.766 158.481 267.73 158.081 269.564 157.383C273.048 156.055 276.74 154.883 280.132 153.357C281.64 152.678 282.912 151.545 284.409 150.841C285.684 150.241 287.571 149.87 288.938 149.583C291.995 148.939 295.621 147.53 297.744 145.054C298.259 144.453 298.831 143.813 299.002 143.041C299.185 142.218 298.793 141.367 298.751 140.525C298.709 139.687 298.751 138.847 298.751 138.009C298.751 135.392 298.763 132.534 298.248 129.957C297.734 127.391 296.326 125.093 295.48 122.661C294.571 120.046 294.383 117.228 293.467 114.609C292.62 112.189 291.38 110.141 290.951 107.564C290.142 102.71 290.922 97.6176 290.699 92.7196C290.547 89.3586 290.028 86.0012 289.693 82.6553C289.551 81.2404 289.45 78.7605 288.938 77.3715C288.008 74.8459 286.13 72.6108 285.164 70.0749C284.446 68.1907 284.237 66.1236 283.403 64.288C282.297 61.8554 280.409 60.343 278.874 58.2494C275.849 54.1249 273.774 49.3298 269.564 46.1723C266.768 44.0748 263.177 43.5341 260.255 41.6433C258.748 40.6683 257.517 39.2959 255.978 38.3725C255.174 37.89 254.249 37.6238 253.462 37.1144C252.812 36.6944 252.4 35.934 251.7 35.6048C250.241 34.9179 248.513 35.1016 246.92 34.85C243.984 34.3864 239.059 33.3342 238.114 33.5919C237.151 33.8543 237.477 35.6099 236.219 35.9874Z" fill="#ec5286" fill-rule="nonzero" opacity="1" stroke="none"/>
<path d="M296.99 154.363C296.612 153.797 295.596 152.998 294.725 152.602C292.943 151.792 290.893 151.698 288.938 151.596C288.184 151.556 287.329 151.221 286.674 151.596C285.987 151.988 285.304 152.825 285.416 153.608C285.525 154.374 286.47 154.804 287.177 155.118C288.034 155.499 289.08 155.257 289.945 155.621C290.717 155.947 291.957 156.292 291.957 157.131C291.957 157.922 290.71 158.188 289.945 158.389C289.052 158.624 288.095 158.297 287.177 158.389C285.456 158.561 283.834 159.28 282.145 159.647C280.216 160.066 278.23 160.281 276.358 160.905C275.501 161.191 274.612 161.44 273.842 161.911C273.081 162.376 272.571 163.178 271.829 163.673C271.049 164.193 270.113 164.442 269.313 164.931C267.824 165.841 266.432 166.903 265.035 167.95C261.498 170.603 258.643 173.992 254.971 176.505C248.924 180.642 241.873 183.27 236.101 187.827C233.325 190.018 231.366 192.984 228.804 195.375C227.443 196.646 225.592 197.329 224.275 198.646C223.024 199.897 222.149 201.526 221.507 203.175C220.867 204.821 220.997 206.494 220.753 208.207C220.632 209.054 220.339 209.873 220.249 210.723C220.082 212.31 220.213 213.923 219.998 215.504C219.595 218.456 217.558 222.702 218.991 225.568C219.337 226.26 219.827 226.95 220.501 227.329C221.246 227.749 222.243 227.468 223.017 227.832C223.717 228.162 224.147 228.896 224.778 229.342C226.788 230.761 229.529 232.45 231.823 233.368C235.28 234.75 239.202 234.759 242.642 236.135C245.029 237.09 247.06 238.787 249.184 240.161C252.106 242.052 255.196 243.397 258.494 244.439C259.252 244.678 259.962 245.193 260.758 245.193C261.554 245.193 262.361 244.88 263.023 244.439C263.666 244.01 263.985 243.224 264.532 242.677C265.163 242.047 265.871 241.5 266.545 240.916C270.691 237.323 275.248 234.24 278.874 230.097C281.663 226.909 285.561 224.189 287.428 220.284C288.796 217.424 289.213 213.771 289.945 210.723C291.085 205.972 291.503 201.17 292.461 196.382C292.848 194.446 293.439 192.549 293.719 190.595C293.838 189.76 293.805 188.905 293.97 188.079C294.664 184.609 296.63 181.528 297.241 178.014C297.544 176.271 297.453 174.476 297.744 172.731C298.021 171.068 298.394 169.378 298.248 167.698C298.014 165.008 297.245 162.331 296.99 159.647C296.91 158.812 297.12 157.959 296.99 157.131C296.865 156.345 296.445 156.084 296.445 155.392C296.445 154.7 297.367 154.929 296.99 154.363Z" fill="#ec5286" fill-rule="nonzero" opacity="1" stroke="none"/>
<path d="M277.238 237.645C274.866 238.662 273.168 240.896 271.577 242.929C271.045 243.609 270.539 244.358 270.319 245.193C270.106 246.004 269.816 247.038 270.319 247.709C270.783 248.328 271.815 248.298 272.584 248.213C273.405 248.121 274.118 247.593 274.848 247.206C277.515 245.795 278.561 244.129 279.125 241.168C279.283 240.34 279.775 239.395 279.377 238.652C279.005 237.957 277.963 237.335 277.238 237.645Z" fill="#ec5286" fill-rule="nonzero" opacity="1" stroke="none"/>
</g>
</g>
</svg>
