<svg height="100%" stroke-miterlimit="10" style="fill-rule:nonzero;clip-rule:evenodd;stroke-linecap:round;stroke-linejoin:round;" version="1.1" viewBox="0 0 400 400" width="100%" xml:space="preserve" xmlns="http://www.w3.org/2000/svg" xmlns:xlink="http://www.w3.org/1999/xlink">
<g id="Main">
<g opacity="1">
<path d="M233.863 34.4819C233.754 34.4819 233.427 34.4819 233.536 34.4819" fill="#ec5286" fill-rule="nonzero" opacity="1" stroke="none"/>
<path d="M215.776 20.2583C208.284 17.7628 215.401 34.1491 211.604 35.0985C209.357 35.6601 207.014 35.3134 204.681 35.5726C198.677 36.2398 192.882 38.2936 187.139 39.9345C185.655 40.3583 180.365 42.0482 180.975 44.4862C181.178 45.2975 185.803 43.681 186.285 43.6327C189.037 43.3575 191.137 41.6362 193.682 40.788C196.699 39.7823 199.867 39.4872 202.974 38.7966C205.028 38.3404 207.745 37.5944 209.802 38.4173C209.967 38.4832 211.086 38.6503 210.75 38.9863C209.468 40.2684 206.266 40.7475 204.587 41.1673C199.238 42.5043 191.122 44.1906 186.949 47.8999C185.896 48.8359 179.804 52.4063 182.113 54.2532C183.808 55.6097 193.48 49.7085 195.199 48.7533C199.083 46.5956 208.639 46.5024 211.414 43.7276C212.775 42.3668 215.556 40.2798 216.44 38.5122C218.455 34.4817 221.438 22.1443 215.776 20.2583Z" fill="#ec5286" fill-rule="nonzero" opacity="1" stroke="none"/>
<path d="M176.51 116.563C179.387 112.302 173.02 99.7267 172.127 94.3716C171.861 92.7758 171.666 91.0189 171.666 89.3889C171.666 89.2085 171.25 87.1744 171.481 87.1744C171.845 87.1744 173.255 90.7222 173.511 91.2344C175.742 95.6959 176.761 101.135 177.571 105.998C177.687 106.691 179.253 111.611 180.339 110.796C181.149 110.189 181.219 101.293 181.077 100.369C180.319 95.4388 180.027 90.0568 177.756 85.5135C175.728 81.4584 171.705 77.54 170.928 72.8724C169.972 67.1396 178.04 63.3173 178.771 58.2012C179.162 55.4624 174.345 59.674 173.788 60.2312C173.636 60.3829 171.886 62.3252 171.758 62.2611C171.392 62.078 172.238 58.8292 172.312 58.3857C172.628 56.4886 172.447 54.5012 173.234 52.6649C173.785 51.3796 179.331 44.021 175.08 44.7296C170.979 45.4131 168.613 52.8681 167.237 56.0789C165.342 60.4992 166.363 67.2228 166.868 71.7651C167.481 77.2823 165.806 82.8823 166.406 88.2817C166.759 91.4561 167.722 94.4013 168.344 97.5088C169.417 102.874 169.88 108.259 172.035 113.287C172.809 115.093 174.739 119.185 176.51 116.563Z" fill="#ec5286" fill-rule="nonzero" opacity="1" stroke="none"/>
<path d="M222.112 21.5013C221.832 21.2366 221.388 20.7046 221.094 20.9534C220.341 21.5903 221.278 24.6148 221.407 25.6498C221.956 30.0389 223.285 34.4179 222.033 38.7996C221.019 42.3514 221.339 46.5636 219.998 49.9143C216.35 59.0349 209.998 67.4638 203.874 75.1181C196.72 84.0607 191.645 93.5288 187.124 104.079C185.898 106.938 184.666 111.157 184.149 114.255C183.968 115.341 183.861 116.454 183.68 117.542C183.571 118.193 183.52 119.887 183.054 119.421C182.588 118.955 182.454 117.242 182.271 116.603C180.59 110.719 180.599 122.082 180.549 122.082C178.213 122.082 178.487 115.863 176.948 115.35C176.418 115.173 174.757 119.08 174.757 119.577C174.757 121.981 176.928 125.466 177.731 127.874C177.997 128.671 178.164 131.346 178.827 131.788C180.423 132.852 181.54 126.361 182.897 127.717C183.389 128.209 179.257 132.294 179.766 133.823C179.904 134.236 181.499 134.658 181.645 135.388C181.693 135.632 179.465 139.385 179.296 140.398C178.297 146.396 178.235 153.508 178.983 159.496C179.202 161.247 178.707 165.746 180.392 167.01C183.189 169.108 184.114 163.068 184.306 161.531C184.819 157.423 182.601 153.148 183.367 149.321C183.668 147.814 185.442 146.459 185.715 145.094C185.902 144.159 183.633 141.002 185.089 140.711C188.066 140.115 188.95 157.384 189.628 160.435C189.903 161.671 192.145 165.659 193.855 164.975C195.256 164.415 192.478 152.61 192.133 150.886C192.092 150.681 191.71 149.41 191.977 149.321C194 148.646 196.182 155.069 196.83 156.365C199.171 161.047 204.031 167.543 204.031 172.333C204.031 173.254 205.593 172.943 205.753 173.742C206.053 175.244 205.655 176.915 205.909 178.438C206.131 179.772 209.315 186.93 211.388 184.857C211.676 184.569 211.5 184.41 211.388 184.074C210.515 181.455 207.255 177.376 208.257 174.368C209.359 171.064 206.164 165.583 204.97 162.001C202.973 156.011 199.944 150.071 197.143 144.468C196.015 142.212 193.734 140.276 191.977 138.519C190.602 137.144 190.656 134.537 189.315 133.197C187.811 131.693 185.58 129.729 184.776 127.717C184.483 126.987 185.62 125.662 185.715 124.9C186.415 119.297 188.259 114.408 189.628 108.932C192.066 99.1828 198.822 89.6289 204.657 81.8496C207.388 78.2076 207.854 73.0993 210.449 69.639C214.997 63.5749 220.468 58.9155 223.442 51.4798C225.21 47.06 228.018 40.8571 227.043 35.9818C226.604 33.7885 225.64 31.4876 225.321 29.2503C224.841 25.8931 224.726 23.9732 222.112 21.5013Z" fill="#ec5286" fill-rule="nonzero" opacity="1" stroke="none"/>
<path d="M193.078 169.464C191.931 169.96 190.49 172.24 191.092 173.743C191.88 175.715 193.942 177.503 194.453 179.549C195.723 184.627 194.148 188.98 194.148 193.912C194.148 196.326 193.536 198.655 193.536 201.093C193.536 201.421 193.121 204.629 193.078 204.607C191.685 203.911 191.158 200.112 190.633 198.801C188.194 192.704 187.178 185.193 185.897 178.785C185.655 177.575 182.43 170.016 181.16 171.604C179.853 173.237 181.971 178.197 182.23 180.007C183.513 188.992 182.683 198.591 188.341 206.135C189.725 207.98 191.159 213.609 194.148 213.011C197.777 212.285 197.815 206.556 197.815 203.843C197.815 194.955 197.203 186.313 197.203 177.563C197.203 175.401 195.696 168.332 193.078 169.464Z" fill="#ec5286" fill-rule="nonzero" opacity="1" stroke="none"/>
<path d="M209.351 188.793C207.496 188.896 206.914 191.535 208.816 192.078C211.104 192.732 213.564 188.559 209.351 188.793Z" fill="#ec5286" fill-rule="nonzero" opacity="1" stroke="none"/>
<path d="M212.407 195.974C211.885 194.862 208.354 194.851 208.052 196.662C207.756 198.44 210.663 197.065 210.344 198.343C209.234 202.782 204.944 209.784 208.51 214.539C211.779 218.897 213.409 212.968 214.011 210.261C214.941 206.075 214.197 199.791 212.407 195.974Z" fill="#ec5286" fill-rule="nonzero" opacity="1" stroke="none"/>
<path d="M196.482 214.842C193.9 215.487 194.031 225.047 194.52 227.003C195.203 229.736 195.071 232.826 195.305 235.633C196.059 244.689 198.196 254.097 196.874 263.355C196.207 268.022 194.269 272.568 193.605 277.216C193.056 281.058 193.703 285.224 192.951 288.984C192.23 292.589 185.432 294.612 184.844 298.138C184.365 301.007 186.57 301.422 188.505 302.584C191.451 304.351 202.214 302.355 203.412 304.153C205.935 307.938 193.639 310.461 192.166 310.952C190.976 311.349 189.691 313.027 189.159 314.091C186.339 319.73 198.045 315.841 199.228 318.798C200.31 321.505 195.202 326.396 196.22 326.905C198.75 328.17 205.227 321.453 204.72 318.406C204.352 316.201 198.966 315.891 198.966 313.96C198.966 313.623 199.399 313.004 199.62 312.783C200.304 312.098 201.451 312.129 202.235 311.737C203.973 310.868 204.567 308.479 206.42 307.553C206.619 307.453 207.087 306.995 207.335 307.16C213.23 311.09 209.188 318.24 211.781 324.29C212.418 325.777 215.368 330.118 213.873 331.613C207.636 337.849 202.192 333.355 198.181 343.381C197.796 344.346 197.122 347.016 197.658 348.089C198.573 349.918 202.868 349.916 204.458 350.181C206.165 350.466 207.11 352.541 207.989 353.712C209.695 355.987 203.92 361.471 204.458 364.696C204.898 367.337 210.12 365.619 211.781 367.834C214.407 371.336 209.826 375.528 211.519 378.295C215.462 384.737 217.184 371.009 216.619 368.749C216.029 366.39 212.514 364.51 213.219 361.688C213.931 358.839 219.477 357.559 217.011 353.45C214.666 349.542 201.572 346.82 202.758 342.074C203.375 339.606 208.303 339.384 210.212 339.066C217.302 337.885 220.298 333.011 218.973 326.382C218.027 321.655 215.721 318.31 213.611 314.091C208.571 304.01 207.335 291.503 207.335 280.485C207.335 277.085 205.707 270.015 207.858 267.147C208.844 265.832 209.777 269.986 209.95 270.678C210.419 272.553 212.302 274.174 213.742 275.254C216.561 277.369 224.407 275.096 225.119 278.654C225.898 282.551 211.106 279.806 209.95 285.584C207.732 296.673 219.244 289.975 219.626 293.038C220.177 297.443 214.673 298.033 214.134 301.799C213.749 304.499 217.383 314.755 220.28 313.306C221.734 312.579 217.408 303.339 217.796 301.014C218.106 299.152 220.127 299.284 221.065 297.876C221.87 296.669 222.91 289.908 221.588 289.115C219.618 287.933 215.633 290.483 214.396 289.246C213.428 288.278 215.987 286.627 216.75 286.5C220.047 285.95 230.045 283.108 229.303 278.654C228.428 273.408 224.26 270.827 219.103 272.116C218.391 272.294 216.894 272.616 216.227 272.116C213.515 270.082 211.262 266.503 209.95 263.224C207.242 256.455 207.704 243.948 208.512 236.679C208.811 233.984 210.211 231.566 210.212 228.964C210.212 226.06 211.393 218.479 207.858 217.065C204.633 215.775 206.059 226.917 203.15 225.172C201.036 223.904 198.679 214.293 196.482 214.842ZM199.881 231.187L203.02 237.987C203.02 243.43 203.543 248.759 203.543 254.202C203.543 256.819 202.908 259.371 203.02 262.047C203.134 264.783 203.947 267.545 204.066 270.285C204.21 273.608 203.14 276.72 203.281 279.962C203.45 283.853 203.804 287.837 203.804 291.73C203.804 292.673 204.823 295.436 204.197 296.176C203.382 297.139 198.391 295.829 196.874 296.045C194.734 296.351 192.398 299.731 190.074 299.184C188.726 298.867 188.27 296.68 188.897 295.653C189.459 294.733 190.779 294.624 191.643 294.215C193.827 293.18 196.529 290.038 197.397 287.807C198.451 285.098 197.383 281.152 197.658 278.262C198.086 273.772 199.342 269.414 199.751 264.924C200.448 257.254 199.948 249.575 199.358 241.91C199.223 240.156 197.725 229.839 199.881 231.187Z" fill="#ec5286" fill-rule="nonzero" opacity="1" stroke="none"/>
</g>
</g>
</svg>
