<svg height="100%" stroke-miterlimit="10" style="fill-rule:nonzero;clip-rule:evenodd;stroke-linecap:round;stroke-linejoin:round;" version="1.1" viewBox="0 0 400 400" width="100%" xml:space="preserve" xmlns="http://www.w3.org/2000/svg" xmlns:xlink="http://www.w3.org/1999/xlink">
<g id="Main">
<g opacity="1">
<g opacity="1">
<path d="M96.298 42.2822C92.6524 45.9279 91.4941 50.5551 89.1192 54.9396C87.8099 57.3567 85.6594 58.3671 84.0184 60.4182C81.89 63.0788 79.1712 67.2358 77.9731 70.4308C74.6015 79.4219 75.1304 89.816 71.361 98.7683C67.5483 107.824 56.1632 118.699 68.5273 125.972C72.2346 128.153 79.9462 131.115 82.8849 125.972C84.0495 123.934 84.6508 121.18 85.5298 118.982C86.1395 117.458 87.9009 110.117 90.2527 110.67C94.606 111.694 91.9772 129.764 97.6205 127.295C99.9208 126.288 99.6871 122.028 100.643 120.116C102.269 116.864 105.178 113.691 107.444 110.859C110.848 106.604 115.53 103.052 118.59 98.5794C126.742 86.6653 131.664 68.1048 128.414 53.8061C127.293 48.8746 124.373 45.1401 123.124 40.393C122.262 37.1169 123.248 34.4812 120.668 31.7028C113.907 24.4209 102.756 26.9641 96.8648 33.592" fill="#ec5286" fill-rule="nonzero" opacity="1" stroke="none"/>
<path d="M129.547 40.8653C129.349 47.1179 129.816 51.602 130.87 57.3955C132.514 66.4408 133.208 74.4376 130.114 83.2771C127.288 91.3521 123.294 98.8624 118.212 105.758C115.842 108.975 113.438 113.367 110.656 116.149C109.76 117.045 108.182 116.984 107.255 117.849C105.762 119.242 106.141 121.961 105.366 123.705C103.96 126.868 100.117 128.097 98.9429 131.451C96.3953 138.73 101.804 159.115 109.522 162.055C119.173 165.732 127.895 160.844 137.482 161.678C140.948 161.979 144.934 162.134 148.25 163.189C152.363 164.497 154.898 166.632 159.585 165.645C171.304 163.178 167.962 150.048 167.52 141.652C167.223 136.013 166.835 129.97 166.008 124.461C165.389 120.332 162.972 116.798 162.419 112.559C161.571 106.057 162.368 99.4405 162.041 92.9119C161.769 87.4673 161.182 80.9006 163.364 75.7205C167.817 65.1427 186.16 52.3162 175.454 39.8263C173.632 37.7007 170.976 36.8596 169.031 34.9144C166.213 32.0967 164.181 28.5884 160.908 26.2242C151.124 19.1582 134.593 18.3218 123.502 22.6348C117.509 24.9655 120.419 34.2872 124.069 37.9371C125.601 39.4692 129.615 38.7379 129.547 40.8653Z" fill="#ec5286" fill-rule="nonzero" opacity="1" stroke="none"/>
<path d="M63.8988 130.034C62.831 130.222 60.8874 130.37 60.9706 131.451C61.1194 133.385 62.9994 134.802 64.3711 136.174C64.8883 136.691 72.2885 142.035 73.628 141.652C77.2911 140.606 74.9419 136.346 74.0059 134.474C71.9717 130.405 67.9732 129.315 63.8988 130.034Z" fill="#ec5286" fill-rule="nonzero" opacity="1" stroke="none"/>
<path d="M68.5273 147.037C67.8439 141.928 61.7707 140.054 58.3258 136.363C58.159 136.184 56.0303 133.88 55.492 134.096C54.2792 134.581 51.1818 140.524 50.3913 141.841C47.6461 146.417 46.4087 151.729 43.9681 156.388C42.5748 159.048 40.4946 161.141 39.0562 163.756C37.8932 165.87 35.4823 169.702 36.6003 172.257C37.8309 175.07 41.6548 174.26 43.7792 173.39C49.5027 171.049 57.4195 166.397 61.1595 161.489C64.2639 157.414 69.2015 152.077 68.5273 147.037Z" fill="#ec5286" fill-rule="nonzero" opacity="1" stroke="none"/>
<path d="M161.911 172.075C162.78 167.413 153.655 168.535 149.067 168.776C139.41 169.284 129.341 172.724 119.611 171.84C116.311 171.54 107.357 169.085 107.357 174.903C107.357 192.498 125.986 185.377 136.342 188.336C140.192 189.435 144.537 193.086 148.596 191.163C156.883 187.238 160.429 180.022 161.911 172.075Z" fill="#ec5286" fill-rule="nonzero" opacity="1" stroke="none"/>
<path d="M172.001 170.224C162.978 170.377 158.435 194.995 160.442 204.023C161.691 209.645 164.555 215.201 164.831 220.996C164.882 222.068 165.872 224.476 164.831 224.216C164.739 224.192 159.452 207.774 158.686 206.072C157.176 202.717 154.344 198.97 150.785 197.585C147.987 196.498 145.043 197.394 142.298 196.707C134.296 194.707 119.922 190.817 114.79 200.512C108.827 211.775 121.237 224.76 125.032 234.458C126.534 238.296 127.863 242.956 128.544 247.041C131.17 262.8 131.521 279.728 130.007 295.619C128.304 313.501 124.525 333.311 130.3 350.636C133.338 359.751 142.461 377.591 152.54 379.607C160.224 381.144 165.613 377.899 172.147 374.632C174.989 373.211 178.056 373.384 180.634 371.413C189.349 364.748 192.732 354.954 191.754 344.198C191.049 336.44 190.726 328.087 188.828 320.494C187.852 316.589 184.8 313.617 185.023 309.374C185.225 305.542 188.307 302.115 189.12 298.253C190.383 292.255 189.949 284.136 189.12 278.061C187.661 267.356 180.27 258.624 179.171 247.627C177.448 230.405 181.245 213.247 179.756 196.122C179.226 190.031 174.03 188.786 171.562 184.124C169.78 180.758 176.059 170.155 172.001 170.224Z" fill="#ec5286" fill-rule="nonzero" opacity="1" stroke="none"/>
</g>
<g opacity="1">
<path d="M273.386 60.2279C243.117 65.7312 226.272 102.421 227.663 130.242C227.841 133.817 225.376 138.055 224.805 141.672C223.545 149.649 223.851 157.924 224.233 165.963C224.376 168.96 225.165 190.586 225.948 191.682C228.109 194.708 233.428 194.254 236.522 194.254C236.703 194.254 240.879 195.177 241.951 194.254C242.573 193.718 243.191 176.044 243.38 173.679C244.775 156.243 245.646 136.024 253.954 120.24C255.843 116.649 259.524 114.945 261.955 111.952C267.221 105.471 269.276 96.3443 275.386 90.2337C278.781 86.8392 276.898 88.9034 280.725 87.8404C282.74 87.2807 283.645 86.4544 285.674 85.9472C290.671 84.6978 298.591 86.6158 301.391 91.3768C305.919 99.0737 310.973 110.247 311.965 119.668C313.039 129.87 307.964 140.994 307.964 151.388C307.964 153.417 310.254 169.434 311.108 169.678C312.683 170.128 314.108 162.247 314.251 161.676C316.056 154.456 315.865 147.017 316.823 139.672C317.827 131.978 319.089 122.936 316.823 115.381C314.392 107.277 310.762 99.2566 307.678 91.3768C305.845 86.691 302.475 82.428 301.677 77.3741C300.307 68.698 305.713 51.0832 291.389 51.0832" fill="#ec5286" fill-rule="nonzero" opacity="1" stroke="none"/>
<path d="M305.282 204.672C305.282 205.243 304.642 205.471 304.249 206.256C303.36 208.035 302.88 210.013 302.534 211.972C302.303 213.285 302.534 214.639 302.534 215.973C302.534 219.612 302.82 223.204 302.82 226.832C302.82 229.865 302.972 232.948 302.82 235.976C302.604 240.292 301.571 244.515 301.391 248.836C301.304 250.932 301.402 253.046 301.106 255.123C300.968 256.085 300.631 257.014 300.534 257.981C300.265 260.672 300.7 263.613 299.963 266.268C299.427 268.198 298.323 269.925 297.391 271.698C296.516 273.36 295.485 274.936 294.533 276.556C294.036 277.401 293.58 278.27 293.104 279.128C292.628 279.985 292.317 280.958 291.675 281.7C290.475 283.084 288.589 283.805 286.817 284.272C285.878 284.519 284.931 284.843 283.959 284.843C283.081 284.843 282.173 284.664 281.387 284.272C280.602 283.879 279.914 283.259 279.387 282.557C278.748 281.705 278.514 280.608 277.958 279.699C276.406 277.16 273.84 275.596 272.243 273.127C271.733 272.339 271.519 271.394 271.1 270.555C270.661 269.677 269.968 268.917 269.671 267.983C269.019 265.935 269.286 263.574 268.242 261.696C267.715 260.746 266.834 260.034 266.242 259.124C265.112 257.386 264.045 255.106 263.384 253.123C262.089 249.238 261.189 245.248 259.097 241.692C258.642 240.917 258.28 240.064 257.669 239.406C257.02 238.708 256.126 238.286 255.382 237.691C253.3 236.025 250.726 234.549 249.667 231.976C248.998 230.351 248.994 228.524 248.524 226.832C248.048 225.117 247.373 223.446 247.095 221.688C246.946 220.742 246.959 219.776 246.809 218.83C246.672 217.963 246.325 217.132 246.238 216.258C246.133 215.216 246.288 214.161 246.238 213.115C246.147 211.202 245.867 209.304 245.666 207.399C245.576 206.542 245.824 205.567 245.38 204.827C244.89 204.011 243.927 203.575 243.094 203.113C242.197 202.615 241.21 202.294 240.237 201.97C237.325 200.999 234.937 200.993 231.949 200.827C230.142 200.726 228.206 200.171 226.52 200.827C225.632 201.172 224.762 201.749 224.233 202.541C223.746 203.272 223.449 204.261 223.662 205.113C223.875 205.965 224.777 206.472 225.377 207.114C226.112 207.902 226.983 208.563 227.663 209.4C228.229 210.097 228.709 210.873 229.092 211.686C229.476 212.504 229.621 213.416 229.949 214.258C230.289 215.132 230.899 215.912 231.092 216.83C231.465 218.601 230.794 220.474 231.092 222.259C231.241 223.151 231.808 223.939 231.949 224.831C232.098 225.772 231.902 226.738 231.949 227.689C232.045 229.601 232.056 231.547 232.521 233.404C233.007 235.347 234.279 237.004 235.093 238.834C236.632 242.297 236.915 246.278 238.522 249.693C239.301 251.349 240.753 252.597 241.951 253.98C243.757 256.064 245.284 258.535 246.238 261.124C246.582 262.057 246.909 263.005 247.095 263.982C247.292 265.015 247.174 266.094 247.381 267.125C247.735 268.898 248.576 270.538 249.095 272.269C249.962 275.157 250.308 278.311 251.382 281.128C253.293 286.146 257.796 288.669 260.812 292.845C262.019 294.515 262.942 296.389 264.241 297.989C266.177 300.371 268.66 301.841 271.386 303.132C272.233 303.534 273.05 304.037 273.957 304.275C276.507 304.946 279.64 304.561 282.245 304.561C285.767 304.561 289.402 304.367 292.818 303.418C294.591 302.926 296.217 302 297.962 301.418C299.738 300.826 301.667 300.715 303.392 299.989C306.322 298.755 309.801 295.691 311.679 293.13C312.211 292.406 312.569 291.563 313.108 290.844C314.411 289.107 315.949 287.537 317.109 285.7C318.156 284.042 319.17 282.349 319.966 280.557C320.333 279.731 320.457 278.81 320.824 277.985C321.222 277.088 321.833 276.299 322.253 275.413C323.131 273.558 323.861 271.634 324.539 269.697C325.287 267.56 325.682 265.315 326.253 263.125C327.282 259.181 328.68 255.272 329.968 251.408C330.702 249.207 331.33 246.963 332.255 244.835C333.562 241.827 335.37 239.051 336.541 235.976C337.835 232.579 338.822 229.035 340.256 225.689C341.062 223.809 342.199 222.088 343.114 220.259C343.533 219.42 344.006 218.591 344.257 217.687C344.488 216.856 344.907 215.897 344.543 215.115C344.14 214.252 343.17 213.669 342.256 213.401C341.429 213.157 340.498 213.399 339.685 213.686C338.837 213.985 338.242 214.805 337.398 215.115C334.585 216.152 331.604 215.53 329.111 213.972C327.559 213.002 326.332 211.58 324.824 210.543C323.343 209.525 321.86 208.489 320.252 207.685C318.496 206.807 316.617 206.197 314.823 205.399C313.625 204.867 311.021 203.611 309.679 203.399C307.495 203.054 304.449 203.566 304.249 203.97C303.848 204.78 305.282 204.1 305.282 204.672Z" fill="#ec5286" fill-rule="nonzero" opacity="1" stroke="none"/>
<path d="M317.213 52.042C316.19 52.1755 315.662 51.7216 314.9 51.5082C314.177 51.3059 313.501 50.9381 312.765 50.7965C311.947 50.6393 311.103 50.6877 310.274 50.6185C307.313 50.3718 304.342 50.4039 301.377 50.2627C300.722 50.2315 300.074 50.0536 299.42 50.0847C298.815 50.1135 298.023 49.9725 297.64 50.4406C297.3 50.8563 297.514 51.5994 297.818 52.042C298.228 52.6386 298.969 52.9284 299.597 53.2876C300.76 53.9519 301.981 54.2668 303.156 54.889C304.048 55.3609 305.348 56.3371 306.181 56.8463C306.702 57.1647 307.192 57.5805 307.782 57.7359C308.762 57.9936 310.225 57.627 311.163 57.3801C313.024 56.8904 314.696 56.0244 316.501 55.4228C317.02 55.2499 317.639 55.3567 318.103 55.0669C318.637 54.7327 318.985 54.1585 319.348 53.6434C319.7 53.1445 320.319 52.6473 320.238 52.042C320.166 51.5 319.48 50.966 318.992 50.9744C318.236 50.9874 318.236 51.9086 317.213 52.042Z" fill="#ec5286" fill-rule="nonzero" opacity="1" stroke="none"/>
<path d="M333.052 53.9807C332.918 53.7583 332.164 53.0755 331.448 53.1096C330.757 53.1425 329.946 53.5435 329.668 54.1772C329.42 54.7445 329.874 55.4315 330.202 55.9566C330.831 56.9625 332.157 57.3107 333.049 58.0918C333.524 58.507 333.849 59.0695 334.295 59.5153C335.075 60.2954 336.13 60.75 336.964 61.4726C337.917 62.2984 338.506 63.4892 339.455 64.3195C339.938 64.742 340.477 65.1125 341.056 65.3871C341.616 65.6522 342.276 65.6559 342.836 65.9209C343.415 66.1956 343.876 66.677 344.437 66.9886C344.948 67.2722 345.543 67.3907 346.039 67.7003C346.502 67.9901 346.961 68.3269 347.284 68.7679C347.63 69.239 347.712 69.8587 347.996 70.3693C349.211 72.5558 350.644 74.7291 352.088 76.775C352.8 77.7833 353.722 78.6721 354.224 79.7999C354.668 80.7993 354.47 82.0132 354.935 83.0027C355.437 84.068 356.581 84.7016 357.248 85.6717C357.579 86.1531 357.387 87.1586 357.96 87.2732C358.496 87.3804 358.795 86.5224 359.028 86.0276C359.285 85.4803 359.28 84.8442 359.384 84.2483C360.007 80.6649 359.356 77.88 358.316 74.4618C358.098 73.7441 357.915 73.0096 357.604 72.3266C356.192 69.2192 352.757 67.8852 350.309 65.743C348.484 64.1465 346.855 62.2891 345.149 60.5829C344.703 60.1371 344.171 59.7832 343.725 59.3374C342.829 58.4412 342.45 57.6246 341.412 56.8463C340.496 56.159 339.313 55.9073 338.209 55.6007C336.127 55.0224 332.15 54.4295 331.982 53.9993C331.901 53.7938 333.185 54.2031 333.052 53.9807Z" fill="#ec5286" fill-rule="nonzero" opacity="1" stroke="none"/>
<path d="M319.254 61.3873C318.365 61.6542 317.86 60.8067 317.035 60.7608C315.661 60.6845 314.277 60.961 312.943 61.2946C311.885 61.5591 310.914 62.0973 309.918 62.5402C307.919 63.4286 305.425 64.71 304.224 66.6327C302.866 68.8045 302.933 71.8335 303.156 74.2839C303.273 75.574 303.796 76.7979 304.224 78.0205C304.835 79.7669 305.548 81.4402 306.181 83.1807C306.637 84.4333 306.984 85.7378 307.605 86.9173C308.235 88.1153 309.049 89.223 309.562 90.476C309.846 91.1704 309.989 91.9168 310.274 92.6112C310.776 93.8387 311.414 95.0078 312.053 96.1699C312.656 97.2662 313.427 98.2656 314.01 99.3728C316.15 103.439 317.04 108.06 317.747 112.54C318.048 114.445 318.541 116.323 318.814 118.234C319.062 119.965 319.079 121.658 319.17 123.394C319.227 124.467 319.467 125.524 319.526 126.597C319.631 128.481 319.526 130.403 319.526 132.291C319.526 133.418 319.638 134.55 319.526 135.672C319.209 138.845 318.369 141.99 317.747 145.102C317.016 148.757 316.679 152.411 316.679 156.134C316.679 157.913 316.78 159.706 316.501 161.472C316.32 162.623 315.908 163.726 315.612 164.853C315.472 165.382 315.374 165.92 315.256 166.454C315.137 166.988 314.436 167.766 314.9 168.056C315.442 168.394 316.129 167.668 316.679 167.344C318.045 166.54 319.146 165.094 320.416 164.141C321.972 162.974 323.435 161.928 324.864 160.582C325.353 160.123 325.755 159.567 326.288 159.159C327.487 158.242 328.204 158.272 329.491 157.558C330.569 156.958 331.587 156.235 332.515 155.422C334.019 154.107 335.18 152.512 336.43 150.974C337.207 150.018 337.795 149.254 338.921 148.661C340.15 148.014 341.538 147.732 342.836 147.237C345.299 146.299 347.91 145.47 350.309 144.39C351.376 143.91 352.275 143.109 353.334 142.611C354.236 142.187 355.57 141.925 356.537 141.721C358.698 141.266 361.263 140.27 362.764 138.518C363.129 138.094 363.533 137.641 363.654 137.095C363.783 136.513 363.506 135.911 363.476 135.316C363.447 134.723 363.476 134.129 363.476 133.536C363.476 131.685 363.485 129.664 363.12 127.842C362.757 126.027 361.761 124.403 361.163 122.682C360.52 120.833 360.388 118.84 359.74 116.988C359.141 115.277 358.264 113.828 357.96 112.006C357.388 108.573 357.94 104.972 357.782 101.508C357.674 99.1311 357.307 96.7568 357.07 94.3906C356.97 93.39 356.899 91.6362 356.537 90.6539C355.879 88.8678 354.551 87.2872 353.868 85.4938C353.36 84.1613 353.212 82.6994 352.622 81.4013C351.84 79.681 350.505 78.6114 349.419 77.1309C347.28 74.214 345.813 70.8229 342.836 68.59C340.858 67.1067 338.319 66.7243 336.252 65.3871C335.186 64.6976 334.316 63.7271 333.227 63.074C332.659 62.7328 332.005 62.5446 331.448 62.1843C330.989 61.8872 330.697 61.3495 330.202 61.1167C329.17 60.6309 327.948 60.7608 326.822 60.5829C324.745 60.2551 321.262 59.511 320.594 59.6932C319.913 59.8788 320.144 61.1203 319.254 61.3873Z" fill="#ec5286" fill-rule="nonzero" opacity="1" stroke="none"/>
<path d="M362.231 145.102C361.964 144.702 361.245 144.136 360.629 143.857C359.369 143.284 357.919 143.218 356.537 143.145C356.004 143.117 355.399 142.88 354.935 143.145C354.449 143.422 353.966 144.014 354.046 144.568C354.123 145.11 354.791 145.414 355.291 145.636C355.897 145.905 356.637 145.734 357.248 145.992C357.795 146.222 358.672 146.466 358.672 147.059C358.672 147.619 357.79 147.807 357.248 147.949C356.617 148.115 355.94 147.884 355.291 147.949C354.074 148.071 352.927 148.579 351.732 148.839C350.368 149.135 348.964 149.287 347.64 149.728C347.034 149.93 346.406 150.107 345.861 150.44C345.323 150.769 344.962 151.336 344.437 151.686C343.885 152.054 343.224 152.23 342.658 152.575C341.605 153.219 340.62 153.97 339.633 154.711C337.131 156.587 335.112 158.984 332.515 160.76C328.239 163.686 323.252 165.545 319.17 168.767C317.207 170.317 315.822 172.415 314.01 174.106C313.047 175.004 311.739 175.487 310.807 176.419C309.923 177.303 309.304 178.455 308.85 179.621C308.397 180.785 308.489 181.969 308.316 183.18C308.231 183.779 308.024 184.358 307.96 184.96C307.842 186.082 307.935 187.222 307.782 188.34C307.498 190.428 306.057 193.431 307.071 195.458C307.315 195.947 307.662 196.435 308.138 196.703C308.666 197 309.37 196.802 309.918 197.059C310.412 197.292 310.716 197.811 311.163 198.127C312.585 199.13 314.523 200.325 316.145 200.974C318.59 201.951 321.363 201.958 323.797 202.931C325.485 203.606 326.921 204.806 328.423 205.778C330.489 207.115 332.674 208.066 335.007 208.803C335.543 208.972 336.045 209.337 336.608 209.337C337.171 209.337 337.741 209.115 338.209 208.803C338.664 208.5 338.89 207.944 339.277 207.557C339.723 207.111 340.224 206.725 340.7 206.312C343.632 203.771 346.855 201.591 349.419 198.661C351.392 196.406 354.148 194.483 355.469 191.721C356.437 189.698 356.731 187.115 357.248 184.96C358.055 181.599 358.351 178.203 359.028 174.817C359.302 173.448 359.72 172.107 359.917 170.725C360.002 170.135 359.978 169.53 360.095 168.945C360.586 166.491 361.976 164.313 362.409 161.828C362.623 160.595 362.559 159.325 362.764 158.091C362.96 156.915 363.224 155.72 363.12 154.533C362.955 152.63 362.411 150.737 362.231 148.839C362.174 148.248 362.323 147.645 362.231 147.059C362.143 146.504 361.846 146.319 361.846 145.83C361.846 145.341 362.498 145.502 362.231 145.102Z" fill="#ec5286" fill-rule="nonzero" opacity="1" stroke="none"/>
<path d="M348.263 203.999C346.585 204.717 345.384 206.298 344.259 207.735C343.883 208.216 343.525 208.746 343.369 209.337C343.219 209.91 343.014 210.642 343.369 211.116C343.698 211.553 344.427 211.532 344.971 211.472C345.551 211.407 346.056 211.033 346.572 210.76C348.458 209.762 349.198 208.584 349.597 206.49C349.709 205.904 350.057 205.236 349.775 204.71C349.512 204.219 348.775 203.779 348.263 203.999Z" fill="#ec5286" fill-rule="nonzero" opacity="1" stroke="none"/>
</g>
</g>
</g>
</svg>
