<?xml version="1.0" encoding="UTF-8" standalone="no"?>
<!DOCTYPE svg PUBLIC "-//W3C//DTD SVG 1.1//EN" "http://www.w3.org/Graphics/SVG/1.1/DTD/svg11.dtd">
<!-- Created with Vectornator (http://vectornator.io/) -->
<svg height="100%" stroke-miterlimit="10" style="fill-rule:nonzero;clip-rule:evenodd;stroke-linecap:round;stroke-linejoin:round;" version="1.1" viewBox="0 0 400 400" width="100%" xml:space="preserve" xmlns="http://www.w3.org/2000/svg" xmlns:xlink="http://www.w3.org/1999/xlink">
<defs/>
<g id="Bg">
<g opacity="1">
<path d="M317.111 88.383C314.685 80.5073 306.416 82.4876 300.139 78.3028C297.214 76.3524 295.857 72.5403 293.145 70.2798C287.641 65.6936 277.19 65.0985 270.516 62.8739C267.379 61.8282 265.04 60.4926 261.67 60.1995C258.953 59.9633 242.41 58.5008 241.509 61.0224C240.278 64.47 248.834 65.713 250.561 65.9597C260.415 67.3674 269.656 67.8386 279.362 70.4855C282.745 71.4082 285.201 74.1347 288.207 75.8342C295.222 79.799 302.261 81.6428 308.779 86.5316C311.277 88.405 318.298 92.2356 317.111 88.383Z" fill="#ec5286" fill-rule="nonzero" opacity="1" stroke="none"/>
<path d="M240.378 57.8338C235.795 51.9766 225.334 57.9283 217.852 56.908C213.152 56.2672 208.6 55.0571 203.863 54.6451C202.541 54.5302 182.457 52.973 187.611 57.7309C189.979 59.9168 195.709 58.1424 198.514 58.1424C208.841 58.1424 218.298 61.1397 228.343 60.611C232.284 60.4036 244.458 63.0485 240.378 57.8338Z" fill="#ec5286" fill-rule="nonzero" opacity="1" stroke="none"/>
<path d="M181.337 55.0566C181.929 49.9611 171.69 51.3606 166.628 50.5308C162.071 49.7837 152.988 48.414 148.73 50.7365C147.77 51.2601 143.128 53.8806 144.204 55.8794C145.593 58.4579 152.99 55.9127 154.902 55.6737C162.657 54.7043 180.458 62.6087 181.337 55.0566Z" fill="#ec5286" fill-rule="nonzero" opacity="1" stroke="none"/>
<path d="M141.674 53.0098C138.308 49.5157 135.311 55.422 131.289 57.0783C127.591 58.6007 122.382 58.0671 118.441 59.0055C112.661 60.3816 108.205 64.9647 102.595 66.9283C97.5599 68.6906 92.0874 69.1452 86.9635 70.5685C79.4473 72.6564 72.0715 75.2309 65.1222 78.7055C63.0791 79.727 60.0716 83.2433 64.0515 84.487C66.3547 85.2068 78.7695 79.1284 81.6103 78.0631C86.5727 76.2022 91.9432 76.2594 96.8136 74.2088C106.067 70.3127 115.275 65.4125 124.651 62.0033C129.276 60.3214 146.51 58.0292 141.674 53.0098Z" fill="#ec5286" fill-rule="nonzero" opacity="1" stroke="none"/>
<path d="M57.3301 82.9706C49.1469 89.3745 34.2873 100.561 34.2873 116.178C34.2873 121.549 35.0423 126.83 34.5014 132.238C33.5327 141.925 30.3683 151.156 28.934 160.718C28.6082 162.89 28.2598 165.221 28.934 167.356C29.0521 167.73 30.5445 170.708 30.433 171.21C30.0008 173.155 27.025 175.476 26.1503 177.42C24.4712 181.151 25.3879 184.51 24.8656 188.341C24.0445 194.362 23.9809 200.761 22.9384 206.756C22.3433 210.177 21.2253 212.875 21.2253 216.392C21.2253 218.529 20.4703 223.048 22.296 224.743C23.238 225.618 28.8297 228.059 29.5764 227.312C30.3182 226.571 31.4649 212.556 31.7177 211.038C32.0496 209.047 32.205 207.028 32.5743 205.043C33.3221 201.023 34.4386 196.455 36.4286 192.837C37.5775 190.748 39.1902 190.09 39.8547 187.698C42.3075 178.868 41.2218 171.601 39.4265 163.073C36.5569 149.443 46.3274 134.57 48.42 121.318C49.0866 117.096 45.9748 111.257 47.5634 107.399C50.3085 100.732 59.4731 94.5739 61.2802 87.7927C62.1155 84.6579 60.6794 80.3495 57.3301 82.9706Z" fill="#ec5286" fill-rule="nonzero" opacity="1" stroke="none"/>
<path d="M59.4348 81.5942" fill="none" opacity="1" stroke="#010100" stroke-linecap="butt" stroke-linejoin="round" stroke-width="3.74816"/>
<path d="M29.4982 234.528C26.7896 228.971 17.448 224.554 20.6663 235.588C22.9354 243.368 30.0216 249.898 34.0907 256.784C36.4751 260.819 35.4715 264.985 37.388 269.031C43.285 281.48 56.7489 293.711 70.3602 297.293C74.2257 298.31 78.2691 297.734 82.1361 298.471C87.8787 299.565 92.1841 309.933 99.0932 303.888C100.907 302.301 102.501 299.5 99.7998 298C97.0451 296.469 92.9218 296.977 89.9081 296.116C81.4513 293.699 71.6258 289.518 64.0013 285.282C57.4007 281.615 45.5423 271.94 43.0403 264.792C41.1507 259.393 41.1009 252.587 38.33 247.599C35.5817 242.652 32.1062 239.878 29.4982 234.528Z" fill="#ec5286" fill-rule="nonzero" opacity="1" stroke="none"/>
<path d="M103.889 298.865C102.87 301.925 101.603 303.473 103.638 306.671C105.217 309.153 108.7 308.097 110.939 308.433C116.287 309.235 120.8 311.486 125.039 314.727C129.763 318.34 132.383 324.585 136.872 328.575C147.839 338.323 163.378 345.869 177.66 348.465C185.162 349.829 192.956 350.105 200.572 349.724C201.506 349.678 207.37 349.957 207.37 348.214C207.37 345.868 201.412 346.309 200.32 346.199C194.701 345.638 188.192 345.811 182.696 344.437C177.03 343.021 174.001 338.1 168.596 336.38C160.936 333.943 153.054 332.693 146.44 327.82C134.401 318.949 123.686 304.422 107.666 302.642" fill="#ec5286" fill-rule="nonzero" opacity="1" stroke="none"/>
<path d="M323.559 111.141C311.158 109.049 326.927 128.231 331.69 134.979C335.329 140.135 339.228 144.569 343.147 149.392C346.306 153.281 346.591 159.005 348.69 163.437C354.429 175.551 360.901 187.046 356.452 201.134C354.906 206.028 351.03 209.603 348.69 214.07C346.809 217.662 346.098 221.739 343.886 225.157C333.012 241.962 316.289 255.55 303.232 270.616C296.521 278.359 293.505 288.373 288.818 297.226C282.304 309.531 271.207 321.119 261.469 330.858C252.931 339.395 236.844 345.272 224.88 345.272C222.953 345.272 212.236 345.021 211.945 348.228C211.661 351.349 218.049 350.42 218.597 350.446C226.675 350.83 235.692 349.064 243.359 346.38C255.651 342.078 270.421 334.248 279.209 324.205C282.766 320.14 283.556 314.843 286.6 310.531C290.221 305.401 294.969 302.354 298.058 296.487C301.322 290.284 303.438 283.508 306.558 277.268C310.29 269.805 317.236 262.989 322.45 256.572C325.013 253.418 328.402 251.177 331.32 248.441C343.356 237.157 354.537 224.443 360.517 208.895C366.603 193.073 361.953 170.374 354.604 155.675C352.259 150.985 348.001 148.034 345.364 143.479C338.879 132.278 336.365 113.301 323.559 111.141Z" fill="#ec5286" fill-rule="nonzero" opacity="1" stroke="none"/>
<path d="M315.227 111.484C307.941 111.952 302.775 102.689 297.908 97.1267C294.796 93.57 292.205 90.8173 287.843 88.5416C280.802 84.8681 272.374 83.6329 265.049 80.5487C261.355 78.9933 257.191 77.2435 253.207 76.7002C248.38 76.042 230.863 77.5192 235.149 68.4112C237.945 62.4706 247.78 70.2574 253.207 70.4835C263.382 70.9074 277.32 73.8504 285.771 79.6606C292.724 84.4404 297.797 90.3307 305.309 94.4623C310.594 97.3687 324.01 110.921 315.227 111.484Z" fill="#ec5286" fill-rule="nonzero" opacity="1" stroke="none"/>
<path d="M228.488 70.4835C230.354 69.6918 237.618 65.331 231.893 62.7866C228.808 61.4157 222.525 63.1068 219.163 62.7866C202.017 61.1536 185.193 61.6283 167.949 62.4905C164.065 62.6847 148.845 63.2777 147.819 68.4112C146.576 74.623 163.299 74.1869 166.469 74.0359C174.681 73.6449 182.855 72.3945 191.04 71.9637C200.395 71.4713 210.369 74.7424 219.459 73.4438C222.488 73.0111 225.669 71.6801 228.488 70.4835Z" fill="#ec5286" fill-rule="nonzero" opacity="1" stroke="none"/>
<path d="M138.371 65.3795C133.959 64.315 129.299 66.5756 125.038 68.138C111.634 73.053 96.6992 78.3563 85.1933 86.8343C83.4818 88.0955 81.1324 88.724 79.9828 90.5123C76.0412 96.6437 87.9709 92.715 88.5648 94.4968C88.8879 95.466 86.478 95.9576 86.7258 96.9488C86.9698 97.925 88.4798 98.2339 89.4843 98.1748C93.2997 97.9504 99.7807 90.6877 102.97 88.6733C111.247 83.4456 117.823 79.1355 127.797 77.6394C130.305 77.2631 144.102 75.0782 145.267 73.6549C148.208 70.0609 140.461 65.8838 138.371 65.3795Z" fill="#ec5286" fill-rule="nonzero" opacity="1" stroke="none"/>
<path d="M80.4426 95.876C79.0169 94.341 76.1403 95.3473 74.1594 96.0293C70.8004 97.1857 68.5908 103.075 66.8034 105.837C61.7915 113.583 51.7191 126.364 53.3175 136.487C53.7972 139.525 64.6473 143.852 66.1904 142.617C67.9473 141.211 66.239 138.109 66.4969 135.874C67.2958 128.95 69.566 120.54 72.3204 114.113C75.6114 106.434 88.3621 104.403 80.4426 95.876Z" fill="#ec5286" fill-rule="nonzero" opacity="1" stroke="none"/>
<path d="M54.0837 141.698C50.3797 146.303 50.5956 153.029 49.6395 158.861C49.1741 161.701 46.9659 165.163 48.72 167.443C52.2204 171.994 62.3475 163.907 64.0449 160.7C66.8773 155.35 65.9567 142.556 58.528 141.391C57.061 141.161 55.0144 140.54 54.0837 141.698Z" fill="#ec5286" fill-rule="nonzero" opacity="1" stroke="none"/>
<path d="M60.6734 170.049C58.3839 166.771 50.9661 170.877 48.4135 174.493C46.1432 177.709 46.3799 183.6 45.9615 187.366C45.0705 195.385 44.072 203.097 42.2835 210.966C41.4326 214.71 37.3583 225.837 41.0575 228.743C48.8285 234.849 53.7628 209.401 54.237 205.449C54.7634 201.062 55.1979 196.652 55.7695 192.27C56.7435 184.802 64.8372 176.009 60.6734 170.049Z" fill="#ec5286" fill-rule="nonzero" opacity="1" stroke="none"/>
<path d="M48.3075 231.453C35.0534 224.061 39.6957 240.695 44.9097 247.026C47.5728 250.26 48.43 254.169 51.1391 257.503C58.27 266.28 68.8575 271.933 76.6231 280.156C78.8948 282.561 80.1456 285.533 82.8525 287.518C84.7251 288.891 102.957 297.261 102.957 291.199C102.957 289.293 97.1021 287.177 95.8777 286.385C90.5696 282.95 85.1779 279.403 80.3041 275.342C76.2901 271.997 73.8473 266.903 70.1105 263.166C64.7079 257.764 57.9163 254.408 53.9706 247.593C50.9285 242.338 53.4743 234.334 48.3075 231.453Z" fill="#ec5286" fill-rule="nonzero" opacity="1" stroke="none"/>
<path d="M104.089 294.597C105.658 295.543 105.861 297.88 107.204 299.127C110.437 302.129 117.307 302.158 121.362 303.374C127.236 305.137 134.234 307.252 139.767 309.887C143.709 311.764 145.911 315.149 149.394 317.532C155.111 321.444 161.652 323.278 166.667 328.292C170.219 331.844 171.956 334.607 176.86 336.787C183.331 339.663 188.483 341.53 195.548 341.883C195.816 341.897 200.625 342.076 200.928 341.317C201.991 338.661 195.475 337.888 194.416 337.636C188.128 336.139 181.114 333.99 175.444 330.84C171.309 328.543 168.675 324.362 164.684 321.779C152.653 313.995 142.457 306.489 129.007 301.109C123.426 298.877 118.224 295.825 112.584 293.747C111.277 293.266 97.8561 290.837 104.089 294.597Z" fill="#ec5286" fill-rule="nonzero" opacity="1" stroke="none"/>
<path d="M213.037 341.798C213.699 340.427 210.908 339.393 209.443 338.979C208.325 338.663 207.016 339.163 206.06 339.825C202.858 342.042 211.354 345.284 213.037 341.798Z" fill="#ec5286" fill-rule="nonzero" opacity="1" stroke="none"/>
<path d="M221.283 338.486C220.163 338.734 217.883 340.056 218.746 340.811C221.289 343.036 237.664 338.056 240.453 336.442C240.933 336.164 247.299 332.888 245.104 331.79C245.104 331.79 241.898 331.79 241.44 331.79C233.756 331.79 228.389 336.912 221.283 338.486Z" fill="#ec5286" fill-rule="nonzero" opacity="1" stroke="none"/>
<path d="M327.067 281.661C326.944 282.645 326.665 291.627 329.93 287.545C331.638 285.411 330.642 282.062 332.793 279.911C334.75 277.954 337.774 278.743 338.995 275.776C340.677 271.694 339.56 268.261 335.178 268.46C334.603 268.486 332.546 268.587 331.998 269.097C330.77 270.237 331.831 272.597 329.93 273.073C327.531 273.672 329.187 271.206 327.862 274.186" fill="#ec5286" fill-rule="nonzero" opacity="1" stroke="none"/>
<path d="M344.641 250.727C344.624 249.955 343.203 249.543 342.494 249.852C341.017 250.498 340.012 251.941 338.995 253.192C333.673 259.744 341.858 261.993 343.449 256.691C344.029 254.757 344.69 252.824 344.641 250.727Z" fill="#ec5286" fill-rule="nonzero" opacity="1" stroke="none"/>
<path d="M357.762 233.233C357.363 232.366 355.709 232.647 354.9 233.153C353.587 233.974 352.848 235.492 352.037 236.811C351.272 238.054 345.943 245.602 345.993 246.513C346.104 248.506 350.466 247.497 349.969 248.739C349.564 249.753 347.62 249.366 347.107 250.33C346.582 251.314 346.483 254.214 348.22 254.306C350.428 254.422 350.976 251.473 352.196 250.33C353.971 248.666 354.945 250.723 356.967 249.375C359.97 247.374 357.793 244.082 359.83 241.9C360.532 241.148 364.583 238.149 362.375 236.493C360.908 235.393 355.333 242.811 353.627 241.105C352.92 240.398 358.977 235.868 357.762 233.233Z" fill="#ec5286" fill-rule="nonzero" opacity="1" stroke="none"/>
<path d="M342.812 262.735C342.267 262.075 341.228 261.477 340.427 261.781C339.335 262.195 338.683 263.421 338.2 264.484C336.055 269.205 343.818 270.986 343.449 265.439C343.387 264.515 343.402 263.449 342.812 262.735Z" fill="#ec5286" fill-rule="nonzero" opacity="1" stroke="none"/>
<path d="M365.678 219.837C364.858 219.67 363.761 218.933 363.184 219.54C361.561 221.247 360.947 223.69 359.976 225.836C359.24 227.464 359.014 228.888 359.145 230.588C359.161 230.801 359.189 234.573 359.62 234.745C360.014 234.903 363.455 230.433 363.778 229.875C364.196 229.152 363.58 228.093 364.015 227.38C366.165 223.862 367.75 228.485 370.074 227.262C371.575 226.471 372.815 221.753 371.143 220.609C369.745 219.653 367.246 220.158 365.678 219.837Z" fill="#ec5286" fill-rule="nonzero" opacity="1" stroke="none"/>
<path d="M370.311 207.067C367.254 206.451 367.724 212.801 367.104 215.858C367.024 216.254 367.056 216.76 367.341 217.046C370.318 220.022 370.858 210.846 373.4 210.987C374.214 211.033 374.723 212.207 375.538 212.175C376.201 212.15 376.791 211.434 377.439 211.581C377.889 211.684 377.802 212.467 378.151 212.769C378.435 213.015 378.917 213.347 379.22 213.126C381.162 211.713 379.028 206.418 377.676 205.404C375.24 203.577 376.367 208.288 370.311 207.067Z" fill="#ec5286" fill-rule="nonzero" opacity="1" stroke="none"/>
<path d="M373.726 174.359C372.563 173.781 371.92 176.545 370.635 176.729C369.181 176.936 371.07 170.312 367.853 172.814C365.113 174.945 367.315 185.899 368.883 187.752C369.111 188.021 369.001 192.592 369.193 193.007C369.343 193.332 370.082 192.986 370.223 193.316C371.027 195.192 365.338 204.227 369.296 205.061C372.401 205.714 371.974 202.073 373.314 200.528C374.644 198.993 375.515 201.3 377.022 200.115C378.303 199.109 378.516 190.06 377.847 188.989C376.792 187.301 372.868 186.308 372.798 184.559C372.641 180.618 378.816 176.89 373.726 174.359Z" fill="#ec5286" fill-rule="nonzero" opacity="1" stroke="none"/>
<path d="M320.105 92.1129C319.311 92.4621 316.001 91.7872 315.802 92.0351C314.307 93.904 318.843 96.46 319.738 96.9868C323.742 99.3417 322.988 101.65 325.96 104.097C327.978 105.759 330.851 106.445 332.689 108.414C334.23 110.065 335.157 112.25 336.371 114.127C337.927 116.532 340.288 117.832 341.831 119.968C344.673 123.903 346.516 128.958 348.687 133.299C349.644 135.214 351.339 135.263 352.369 136.854C353.138 138.043 352.528 139.316 352.877 140.536C353.814 143.818 356.967 145.076 358.082 148.281C359.712 152.967 362.817 156.872 364.812 161.359C365.662 163.273 365.81 165.54 366.716 167.453C367.08 168.221 369.574 171.443 370.652 171.135C371.979 170.756 371.193 167.966 370.779 167.326C367.791 162.708 370.03 155.701 366.843 150.694C363.928 146.113 362.623 141.409 358.971 137.235C357.661 135.738 355.396 135.731 354.146 134.315C351.614 131.445 352.722 124.162 349.829 120.603C347.984 118.331 349.725 120.978 347.544 119.206C346.149 118.073 345.756 115.717 344.878 114.254C343.645 112.199 341.813 110.156 340.18 108.414C338.573 106.699 336.195 105.94 334.594 104.224C332.532 102.015 329.48 100.111 327.737 97.6216C326.389 95.6954 323.325 91.4955 321.135 89.7497C318.945 88.0039 318.913 90.1623 318.977 90.6385C319.04 91.1146 320.898 91.7638 320.105 92.1129Z" fill="#ec5286" fill-rule="nonzero" opacity="1" stroke="none"/>
</g>
</g>
<g id="Main">
<path d="M148.991 181.917C146.333 186.102 139.101 179.517 134.918 177.547C129.715 175.095 125.944 170.549 121.104 167.454C116.615 164.584 111.634 162.707 107.021 160.034C104.092 158.336 101.489 155.948 98.6309 154.108C95.1948 151.895 91.5587 150.2 88.0587 148.089C87.5372 147.774 85.6338 145.954 85.0576 146.04C82.923 146.36 85.1715 149.742 85.5292 150.502C86.2092 151.946 86.7864 154.065 88.2268 154.933C88.5986 155.158 89.3607 154.95 89.4526 155.374C89.5393 155.775 88.8965 156.129 88.4869 156.135C84.6778 156.186 82.9534 148.736 82.0423 146.34C81.8359 145.797 79.5546 143.764 79.5951 143.521C79.7754 142.442 83.2096 143.063 83.7675 143.084C87.4699 143.222 91.4994 142.074 95.1426 143.023C95.6 143.142 98.4554 144.965 97.9231 145.684C97.5662 146.167 89.2419 145.642 89.1859 145.725C88.2786 147.079 91.3181 148.231 91.9224 148.51C96.0007 150.39 99.7964 152.985 103.887 154.891C107.572 156.608 110.421 158.962 113.837 161.101C120.101 165.024 127.398 167.591 133.872 171.217C136.52 172.7 138.495 174.848 140.958 176.535C143.716 178.425 150.816 179.043 148.991 181.917Z" fill="#ec5286" fill-rule="nonzero" opacity="1" stroke="none"/>
<g opacity="1">
<g opacity="1">
<path d="M193.369 183.027C192.48 183.642 191.818 185.128 192.31 186.091C192.691 186.837 193.442 187.345 194.125 187.83C194.445 188.058 195.515 188.307 195.941 187.982C197.668 186.661 196.364 180.954 193.369 183.027Z" fill="#ec5286" fill-rule="nonzero" opacity="1" stroke="none"/>
<path d="M194.503 194.185C193.925 194.84 192.88 195.524 193.066 196.378C193.347 197.672 194.338 199.154 195.638 199.404C196.504 199.571 196.675 197.955 197 197.135C197.327 196.308 196.315 193.94 195.335 193.806C195.034 193.765 194.705 193.956 194.503 194.185Z" fill="#ec5286" fill-rule="nonzero" opacity="1" stroke="none"/>
</g>
<path d="M180.786 180.54C180.492 180.577 179.733 180.956 179.387 181.108C178.726 181.399 178.004 180.774 177.345 180.999C175.357 181.678 174.494 184.042 174.047 185.831C173.128 189.508 172.676 193.661 174.363 197.187C175.467 199.496 177.395 201.893 180.284 201.532C182.82 201.215 183.442 199.128 184.127 197.073C184.597 195.663 185.189 194.222 185.346 192.728C185.636 189.974 184.877 187.115 184.184 184.483C183.697 182.629 182.849 180.282 180.786 180.54ZM179.912 183.078C180.243 185.826 183.17 188.958 182.722 193.101C182.546 194.731 182.36 196.265 180.958 197.316C180.368 197.759 179.38 198.12 178.635 197.861C177.392 197.429 176.848 196.172 176.427 195.051C175.223 191.84 175.568 185.744 177.531 183.322C178.225 182.466 179.823 182.343 179.912 183.078Z" fill="#ec5286" fill-rule="nonzero" opacity="1" stroke="none"/>
<path d="M165.91 180.475C165.615 180.512 164.857 180.891 164.51 181.043C163.849 181.334 163.127 180.709 162.469 180.934C160.48 181.613 159.618 183.977 159.171 185.766C158.252 189.443 157.8 193.596 159.486 197.122C160.59 199.431 162.519 201.828 165.408 201.467C167.944 201.15 168.566 199.063 169.251 197.008C169.721 195.598 170.312 194.158 170.47 192.663C170.76 189.909 170.001 187.051 169.308 184.418C168.82 182.564 167.972 180.217 165.91 180.475ZM165.035 183.013C165.366 185.761 168.294 188.893 167.846 193.036C167.669 194.666 167.484 196.2 166.082 197.251C165.492 197.694 164.504 198.055 163.759 197.796C162.516 197.364 161.972 196.107 161.551 194.986C160.347 191.775 160.692 185.679 162.655 183.257C163.349 182.401 164.947 182.278 165.035 183.013Z" fill="#ec5286" fill-rule="nonzero" opacity="1" stroke="none"/>
</g>
<path d="M209.456 178.302C208.995 178.852 208.631 179.501 208.072 179.952C207.229 180.633 206.176 181.012 205.304 181.655C204.274 182.416 203.727 184.21 203.92 185.435C203.931 185.506 204.109 186.452 204.186 186.499C204.653 186.786 205.211 185.77 205.411 185.541C206.154 184.691 206.525 183.492 207.593 182.986C208.011 182.788 208.67 182.57 208.977 183.092C209.403 183.816 209.064 185.315 209.03 186.127C208.942 188.256 208.934 190.388 208.764 192.514C208.714 193.142 208.712 193.842 208.445 194.431C208.081 195.231 207.248 196.36 206.529 196.879C206.162 197.144 205.687 197.223 205.304 197.465C204.754 197.813 204.608 198.352 204.932 198.902C205.423 199.738 207.167 199.134 207.966 199.062C210.334 198.847 212.69 198.947 215.046 198.742C215.728 198.683 216.829 198.556 217.228 197.891C217.693 197.116 217.137 196.168 216.43 195.815C215.159 195.18 213.184 195.997 212.224 195.229C211.101 194.331 211.257 192.644 211.106 191.343C210.728 188.06 209.983 184.209 211.16 181.016C211.355 180.487 212.259 178.078 211.958 177.61C211.699 177.206 211.186 177.368 210.84 177.397" fill="#ec5286" fill-rule="nonzero" opacity="1" stroke="none"/>
<path d="M225.351 177.501C224.89 178.051 224.526 178.7 223.967 179.151C223.124 179.832 222.071 180.211 221.199 180.855C220.169 181.615 219.622 183.41 219.815 184.634C219.826 184.705 220.004 185.651 220.081 185.699C220.548 185.986 221.106 184.969 221.306 184.741C222.049 183.891 222.42 182.691 223.488 182.186C223.906 181.988 224.565 181.769 224.872 182.292C225.297 183.015 224.959 184.515 224.925 185.326C224.837 187.456 224.829 189.588 224.659 191.714C224.609 192.342 224.607 193.042 224.34 193.63C223.976 194.431 223.143 195.559 222.423 196.079C222.057 196.344 221.582 196.423 221.199 196.664C220.648 197.012 220.503 197.552 220.826 198.102C221.318 198.937 223.062 198.334 223.861 198.261C226.229 198.046 228.584 198.147 230.94 197.942C231.623 197.883 232.724 197.755 233.123 197.09C233.588 196.316 233.032 195.368 232.324 195.014C231.054 194.379 229.079 195.196 228.119 194.429C226.996 193.53 227.151 191.843 227.001 190.543C226.623 187.26 225.878 183.409 227.055 180.216C227.25 179.686 228.154 177.278 227.853 176.809C227.593 176.405 227.081 176.567 226.735 176.596" fill="#ec5286" fill-rule="nonzero" opacity="1" stroke="none"/>
</g>
</svg>
