<svg height="100%" stroke-miterlimit="10" style="fill-rule:nonzero;clip-rule:evenodd;stroke-linecap:round;stroke-linejoin:round;" version="1.1" viewBox="0 0 400 400" width="100%" xml:space="preserve" xmlns="http://www.w3.org/2000/svg" xmlns:xlink="http://www.w3.org/1999/xlink">
<g id="Main">
<g opacity="1">
<path d="M153.066 33.8988C144.816 30.805 135.306 40.1158 129.424 45.6061C118.894 55.4335 108.308 64.1153 99.8711 76.0679C97.9554 78.7819 97.2229 82.0929 95.5519 84.9337C93.8333 87.8554 91.9392 90.5129 91.46 94.0268C90.6764 99.7736 90.4731 107.434 92.5966 112.895C94.1547 116.901 97.6271 119.507 97.8252 124.261C98.0704 130.148 94.268 138.154 99.8711 143.357C104.782 147.917 120.02 127.505 123.513 124.261C132.423 115.987 133.067 103.205 135.561 91.9808C136.073 89.677 138.048 87.7696 138.971 85.6157C143.29 75.5398 147.886 65.713 150.338 54.9265C151.235 50.9802 156.042 35.0149 153.066 33.8988Z" fill="#ec5286" fill-rule="nonzero" opacity="1" stroke="none"/>
<path d="M127.378 127.444C122.626 128.074 120.801 132.87 117.375 136.082C113.713 139.516 108.546 144.681 107.146 149.722C106.19 153.161 111.238 158.962 114.875 157.678C119.211 156.148 115.705 150.533 118.739 147.903C119.943 146.86 121.891 146.941 123.058 145.857C124.088 144.901 129.074 127.219 127.378 127.444Z" fill="#ec5286" fill-rule="nonzero" opacity="1" stroke="none"/>
<path d="M111.806 160.406C97.3649 152.212 106.216 172.519 113.056 169.954C117.111 168.433 115.2 162.332 111.806 160.406Z" fill="#ec5286" fill-rule="nonzero" opacity="1" stroke="none"/>
<path d="M169.109 27.2136C166.109 21.2831 159.113 30.6288 158.164 33.3389C156.442 38.259 156.667 44.2818 155.553 49.4051C153.815 57.4026 150.043 65.9767 147.52 73.9061C146.535 77.0033 138.91 91.5885 142.098 92.7839C145.282 93.9778 150.813 83.4961 152.541 81.3367C159.187 73.0289 184.008 48.2355 194.514 58.0407C202.476 65.472 196.274 80.4126 197.125 89.7715C197.604 95.0428 200.628 99.8781 197.727 105.034C193.899 111.841 186.818 116.295 184.472 124.113C181.123 135.277 187.385 144.94 190.096 155.241C192.43 164.111 194.706 176.451 193.309 185.767C192.268 192.704 188.032 195.851 184.071 201.03C181.627 204.226 180.034 208.078 177.042 210.871C174.511 213.233 170.963 214.306 168.607 216.494C166.863 218.113 166.439 221.612 165.595 223.724C164.558 226.316 161.547 227.925 160.976 230.552C160.152 234.339 161.393 239.709 161.578 243.606C161.737 246.942 160.628 250.214 160.775 253.446C161.209 262.991 172.354 261.518 178.247 264.291C182.33 266.212 186.353 268.554 190.899 269.311C193.369 269.723 198.657 267.694 200.137 269.914C203.097 274.354 195.67 275.453 193.108 275.738C187.512 276.36 174.783 268.125 172.222 277.345C169.636 286.654 196.343 296.065 203.551 293.812C206.4 292.922 204.458 285.573 205.961 283.169C209.245 277.914 206.299 273.666 206.564 268.106C206.695 265.342 208.576 263.459 208.973 260.676C209.897 254.208 210.533 245.804 213.592 239.991C217.366 232.821 223.596 230.476 228.253 224.125C232.905 217.781 236.303 208.462 237.893 200.829C238.566 197.595 241.264 191.872 240.102 188.579C239.257 186.185 237.385 186.568 237.089 183.759C236.594 179.05 238.204 174.404 236.085 169.902C234.259 166.021 229.769 164.821 227.45 161.869C222.69 155.812 220.552 145.483 221.626 137.97C222.106 134.605 224.332 131.918 225.04 128.732C226.094 123.989 226.983 119.332 228.454 114.674C229.14 112.501 230.945 111.419 231.667 109.252C232.738 106.039 232.033 102.713 233.675 99.612C240.714 86.3161 250.698 71.5536 245.323 55.4299C244.197 52.0511 240.815 51.0405 238.897 48.8026C235.593 44.9484 236.396 38.655 232.069 34.9455C229.201 32.4875 224.674 32.6295 221.425 30.5273C210.32 23.3418 202.043 19.3603 188.288 20.0842C183.266 20.3486 170.25 29.4693 169.109 27.2136Z" fill="#ec5286" fill-rule="nonzero" opacity="1" stroke="none"/>
<path d="M202.26 300.367C201.693 299.074 182.35 296.528 179.435 297.257C176.542 297.98 173.589 302.554 176.043 305.172C177.427 306.649 191.01 311.121 192.862 310.401C195.057 309.548 196.925 307.111 198.656 305.596C200.096 304.337 203.158 302.411 202.26 300.367Z" fill="#ec5286" fill-rule="nonzero" opacity="1" stroke="none"/>
<path d="M162.616 266.305C159.287 264.154 156.881 274.512 159.365 277.188C162.811 280.898 168.178 276.35 165.867 271.958C164.784 269.901 164.602 267.588 162.616 266.305Z" fill="#ec5286" fill-rule="nonzero" opacity="1" stroke="none"/>
<path d="M308.473 344.109C306.426 341.042 305.439 337.314 301.124 337.961C300.387 338.072 299.377 339.247 298.438 338.809C295.238 337.316 295.443 335.086 290.948 335.559C288.68 335.797 282.97 337.757 281.054 335.841C278.982 333.769 281.217 330.169 278.228 327.927C276.606 326.71 271.322 327.187 270.737 326.089C269.886 324.494 271.158 320.92 270.737 319.023C269.635 314.065 260.095 310.024 255.614 310.26C249.216 310.597 243.005 314.924 236.534 314.924C234.406 314.924 233.3 312.936 231.446 312.38C228.487 311.492 223.688 313.071 221.553 315.207C215.611 321.148 220.886 333.803 222.683 340.223C223.431 342.893 224.255 346.189 223.814 348.986C223.744 349.427 223.837 350.258 223.39 350.258C222.357 350.258 222.241 344.253 222.118 343.473C221.58 340.065 219.887 322.866 214.91 325.665C209.505 328.705 211.554 340.382 211.801 345.311C211.847 346.234 213.076 351.867 210.67 350.964C207.771 349.877 209.05 341.512 208.832 339.233C208.183 332.412 203.416 324.134 197.102 321.143C186.052 315.909 174.76 313.408 163.464 308.988C161.275 308.131 154.56 306.531 154.56 303.476C154.56 301.684 161.16 306.535 164.454 303.9C171.064 298.611 171.096 295.117 168.552 288.212C167.848 286.3 168.107 284.203 166.291 282.841C157.669 276.375 145.349 294.674 142.405 301.215C141.569 303.074 141.66 304.807 139.72 306.02C137.522 307.394 135.586 306.456 134.067 308.988C130.954 314.176 128.392 319.744 125.587 325.1C123.752 328.602 120.499 330.399 118.944 334.287C117.311 338.37 119.632 342.527 117.955 346.441C115.493 352.184 115.387 357.658 113.573 363.402C112.841 365.722 111.186 366.245 111.453 369.055C112.133 376.198 115.431 375.911 121.064 377.252C123.757 377.893 126.346 379.646 129.12 379.938C134.037 380.455 140.667 377.57 146.363 377.818C148.639 377.917 150.407 379.473 152.723 379.372C157.52 379.164 161.113 375.336 165.584 375.132C169.841 374.939 174.342 376.815 178.587 375.698C182.939 374.553 186.405 371.24 190.742 370.327C194.776 369.478 198.962 370.15 203.038 369.762C207.085 369.376 210.454 366.865 214.486 366.228C218.552 365.586 222.711 366.132 226.782 365.522C232.753 364.626 238.397 362.549 244.307 361.423C255.599 359.272 267.791 361.593 279.076 360.999C283.059 360.789 286.11 358.507 289.817 357.89C292.181 357.496 293.69 359.284 296.177 358.455C300.193 357.116 311.892 349.231 308.473 344.109Z" fill="#ec5286" fill-rule="nonzero" opacity="1" stroke="none"/>
</g>
</g>
</svg>
