<svg height="100%" stroke-miterlimit="10" style="fill-rule:nonzero;clip-rule:evenodd;stroke-linecap:round;stroke-linejoin:round;" version="1.1" viewBox="0 0 400 400" width="100%" xml:space="preserve" xmlns="http://www.w3.org/2000/svg" xmlns:xlink="http://www.w3.org/1999/xlink">
<g id="Main">
<g opacity="1">
<path d="M169.082 33.6879C164.242 34.8852 152.515 34.4568 146.649 35.2949C143.749 35.7092 141.033 37.3115 138.164 37.9947C134.684 38.8232 131.108 38.4088 127.622 39.2803C121.222 40.8803 115.034 45.6837 109.366 48.9224C106.826 50.3736 93.1643 56.983 94.453 59.7215C97.1715 65.4983 105.288 60.8719 109.495 60.1071C122.778 57.6919 137.035 55.6051 150.634 57.0217C155.531 57.5318 163.829 61.4932 168.632 58.9501C170.772 57.8173 169.79 43.0334 169.79 39.5374C169.79 37.8836 170.761 33.2727 169.082 33.6879Z" fill="#ec5286" fill-rule="nonzero" opacity="1" stroke="none"/>
<path d="M184.96 29.1883C182.422 28.9514 179.798 29.3635 177.375 30.1525C169.222 32.8068 172.752 39.9933 172.232 45.9655C172.016 48.4567 168.899 55.2669 172.746 56.1218C176.166 56.8817 194.248 55.2871 193.316 49.6937C193.017 47.897 190.628 47.3798 190.359 45.3227C189.978 42.4023 192.465 41.9711 193.445 39.7946C195.277 35.7237 188.154 29.4865 184.96 29.1883Z" fill="#ec5286" fill-rule="nonzero" opacity="1" stroke="none"/>
<path d="M204.115 25.91C192.964 26.4237 200.649 35.1848 198.33 38.8946C196.82 41.3101 192.781 45.6093 194.73 48.9224C196.344 51.6649 203.855 48.6639 206.686 50.0794C208.776 51.124 209.512 53.0493 211.315 54.3219C214.295 56.4254 226.6 61.3586 229.827 59.2072C234.147 56.3276 237.3 44.1417 240.369 39.5374C243.528 34.7991 253.721 33.9766 253.482 28.7384C253.281 24.3072 247.835 22.4545 244.355 21.4104C234.601 18.4843 224.288 20.5753 214.786 23.4674C212.545 24.1494 206.247 25.8118 204.115 25.91Z" fill="#ec5286" fill-rule="nonzero" opacity="1" stroke="none"/>
<path d="M224.492 64.671C222.468 57.6418 211.342 58.3873 205.658 53.0363C204.623 52.0621 202.735 50.2511 201.158 51.2365C193.148 56.2431 197.628 77.0929 197.302 84.9193C197.222 86.8242 194.936 103.609 199.358 101.504C201.851 100.317 203.371 94.4005 204.244 92.1187C205.868 87.8719 208.645 83.6037 211.829 80.4197C216.484 75.7641 226.405 71.3129 224.492 64.671Z" fill="#ec5286" fill-rule="nonzero" opacity="1" stroke="none"/>
<path d="M193.601 61.6625C190.982 54.9354 182.173 72.9753 178.374 78.8198C174.02 85.5179 167.475 90.8189 163.576 97.9072C160.224 104.002 160.028 111.434 156.499 117.209C150.824 126.495 140.959 134.679 133.336 142.302C125.936 149.702 120.595 159.837 114.034 168.038C112.364 170.125 103.858 176.158 103.526 177.045C102.619 179.462 107.788 182.606 109.316 183.479C113.906 186.102 133.937 202.286 137.626 200.851C140.908 199.574 140.61 194.919 141.7 192.058C143.242 188.012 149.334 183.137 152.424 180.048C159.739 172.732 178.19 164.266 182.02 155.17C187.314 142.597 177.989 151.126 176.444 150.022C175.304 149.208 181.925 140.284 182.663 139.299C185.07 136.09 186.38 130.162 186.738 126.217C186.937 124.032 186.025 121.655 186.953 119.568C188.468 116.159 192.2 115.177 193.387 111.419C194.922 106.558 194.004 100.39 194.245 95.3336C194.773 84.2384 196.518 69.1547 193.601 61.6625Z" fill="#ec5286" fill-rule="nonzero" opacity="1" stroke="none"/>
<path d="M190.604 148.237C188.875 148.927 188.04 146.536 186.796 149.025C185.664 151.289 186.636 154.992 186.271 157.429C185.597 161.918 178.618 169.406 174.977 172.137C170.805 175.266 164.803 175.669 160.269 178.44C154.984 181.67 151.584 187.754 146.875 191.835C144.33 194.04 138.849 199.062 142.935 202.603C148.028 207.017 165.458 205.18 170.249 201.027C174.1 197.69 176.001 191.891 179.967 188.421C186.913 182.343 194.039 183.911 202.029 180.804C206.984 178.877 210.602 176.215 216.474 177.39C219.428 177.98 222.022 179.902 224.879 180.804C227.122 181.513 230.043 180.562 231.707 182.642C232.843 184.062 237.114 195.705 238.011 198.138C240.237 204.18 243.214 209.714 243.526 216.26C244.068 227.642 242.286 239.039 241.688 250.404C240.796 267.349 246.712 287.949 231.707 300.305C225.612 305.325 218.29 307.203 211.747 311.336C209.431 312.799 207.873 315.753 204.918 316.064C201.87 316.385 200.32 314.751 197.039 316.064C193.54 317.463 192.216 321.518 189.16 322.367C185.197 323.468 177.551 319.786 174.977 325.256C170.639 334.475 184.034 356.248 193.624 356.248C200.807 356.248 209.103 348.334 214.636 344.429C223.456 338.203 233.488 335.077 242.738 329.721C246.072 327.791 247.73 324.059 251.405 322.63C259.575 319.453 260.611 331.651 267.426 333.923C280.541 338.295 282.271 324.945 289.488 318.69C292.481 316.096 295.401 315.794 297.367 311.861C301.493 303.609 305.247 292.429 303.671 282.971C302.98 278.824 299.856 275.287 300.782 270.89C301.39 268 303.956 266.704 304.721 263.798C306.287 257.849 305.881 251.148 303.145 245.676C301.937 243.259 300.321 237.942 297.63 236.746C294.319 235.275 281.208 239.103 282.134 231.231C282.972 224.107 296.862 238.383 300.256 233.857C301.677 231.962 298.798 225.842 298.681 223.614C298.153 213.589 294.684 203.42 290.801 194.199C286.958 185.072 285.236 175.331 279.77 166.884C275.553 160.367 265.208 158.645 258.759 155.591C240.957 147.158 227.402 140.452 207.019 143.509C201.94 144.271 195.437 146.307 190.604 148.237Z" fill="#ec5286" fill-rule="nonzero" opacity="1" stroke="none"/>
<path d="M236.29 337.461C232.465 338.505 227.84 338.421 224.403 340.655C217.581 345.089 211.621 350.891 204.888 355.38C202.309 357.099 194.505 361.06 198.146 364.961C200.762 367.764 208.057 364.403 211.097 363.187C218.933 360.052 239.777 346.526 240.725 337.994" fill="#ec5286" fill-rule="nonzero" opacity="1" stroke="none"/>
<path d="M260.507 341.187C252.179 339.593 245.469 343.357 239.129 348.993C237.176 350.729 235.943 353.096 233.806 354.671C232.013 355.992 223.396 358.834 224.226 361.945C225.381 366.275 235.112 359.903 236.645 359.106C241.263 356.705 245.681 353.502 250.306 351.3C253.216 349.914 256.842 349.815 258.999 347.042C260.274 345.403 262.45 341.559 260.507 341.187Z" fill="#ec5286" fill-rule="nonzero" opacity="1" stroke="none"/>
<path d="M185.283 371.348C183.083 367.751 181.111 371.773 178.098 371.17C176.249 370.801 176.378 365.523 176.146 364.251C174.993 357.908 174.147 350.897 169.405 346.155C164.052 340.802 154.258 332.942 146.163 333.913C134.722 335.286 126.743 342.914 123.454 353.251C122.43 356.47 120.429 358.375 121.857 361.945C123.868 366.972 131.566 366.001 135.873 368.154C140.312 370.374 142.27 374.703 146.163 377.38C153.552 382.46 161.403 377.733 169.227 378.444C171.384 378.64 173.98 380.513 176.146 379.864C179.542 378.845 187.132 374.37 185.283 371.348Z" fill="#ec5286" fill-rule="nonzero" opacity="1" stroke="none"/>
<path d="M128.954 335.687C126.647 333.023 122.034 334.462 118.486 334.8C115.753 335.061 103.86 336.936 104.293 340.832C104.556 343.201 109.051 344.549 110.68 345.445C122.103 351.728 118.74 347.321 125.938 340.123C127.924 338.136 131.012 338.065 128.954 335.687Z" fill="#ec5286" fill-rule="nonzero" opacity="1" stroke="none"/>
</g>
</g>
</svg>
