<svg height="100%" stroke-miterlimit="10" style="fill-rule:nonzero;clip-rule:evenodd;stroke-linecap:round;stroke-linejoin:round;" version="1.1" viewBox="0 0 400 400" width="100%" xml:space="preserve" xmlns="http://www.w3.org/2000/svg" xmlns:xlink="http://www.w3.org/1999/xlink">
<g id="Main">
<g opacity="1">
<path d="M266.836 230.7C260.788 229.745 254.929 233.434 250.147 236.622C245.14 239.96 241.892 245.968 238.482 250.799C232.313 259.538 224.416 267.106 218.383 275.923C215.889 279.568 212.6 288.133 215.691 292.254C216.297 293.062 219.128 293.004 219.28 293.69C219.546 294.884 211.601 296.977 210.846 297.638C204.799 302.928 199.367 309.454 197.386 317.378C193.39 333.363 208.627 343.233 215.332 355.423C217.205 358.829 214.791 362.751 215.153 366.37C215.67 371.544 224.642 378.112 229.15 379.829C231.119 380.579 232.651 378.662 234.355 377.855C240.776 374.814 240.731 368.938 242.789 362.422C243.663 359.656 243.055 355.646 246.199 354.167C246.491 354.029 248.302 353.755 248.532 353.449C249.622 351.996 247.803 346.525 247.634 344.835C247.32 341.688 248.126 332.798 249.967 330.12C251.585 327.767 250.184 330.944 252.121 328.684C253.951 326.549 251.447 320.9 252.48 318.096C254.616 312.297 259.346 308.227 261.273 302.124C262.876 297.05 261.391 291.274 262.529 286.152C263.51 281.741 267.997 280.896 268.631 276.462C269.507 270.329 266.588 263.918 267.554 257.798C267.952 255.279 269.079 253 269.349 250.44C269.589 248.161 267.854 245.922 268.272 243.621C268.848 240.452 271.498 243.215 272.22 240.929C272.749 239.255 268.821 236.73 270.426 235.904C274.795 233.657 269.046 231.049 266.836 230.7ZM244.584 248.646L247.634 249.722C251.58 251.695 249.852 258.671 249.25 262.284C247.17 274.759 243.32 285.806 236.867 296.561C235.434 298.95 230.061 309.627 226.458 308.226C221.51 306.301 225.65 296.631 226.279 293.331C227.869 284.982 229.594 278.053 232.56 270.001C234.096 265.833 233.623 260.56 236.687 257.26C239.658 254.06 238.959 248.177 244.584 248.646Z" fill="#ec5286" fill-rule="nonzero" opacity="1" stroke="none"/>
<path d="M221.627 179.955C215.153 181.161 198.596 195.594 199.462 203.39C200.035 208.541 206.703 211.308 209.345 215.391C211.453 218.648 210.074 221.783 211.321 224.991C214.109 232.159 218.239 240.972 218.239 248.85C218.239 253.578 218.128 258.586 216.545 263.109C215.262 266.775 212.902 269.988 212.027 273.838C211.749 275.062 209.916 281.576 211.039 282.45C212.615 283.676 214.79 274.357 215.133 273.556C217.391 268.288 221.668 262.24 225.58 258.026C230.069 253.192 233.435 247.36 237.863 242.638C243.833 236.27 254.736 229.708 253.675 219.626C252.527 208.719 243.837 201.654 236.31 195.202C230.118 189.895 233.373 177.767 221.627 179.955Z" fill="#ec5286" fill-rule="nonzero" opacity="1" stroke="none"/>
<path d="M244.065 20.4547C235.408 18.1055 232.609 25.3547 232.347 30.8512C232.034 37.4321 239.828 39.3872 240.805 43.5385C241.952 48.4103 234.599 46.2912 233.052 48.12C229.89 51.8572 231.796 69.0566 231.29 74.3756C230.26 85.1832 228.158 97.0199 225.299 107.504C224.302 111.158 221.69 113.94 220.893 117.724C219.475 124.46 219.036 131.458 217.545 138.165C216.446 143.112 214.818 160.108 218.25 164.068C221.037 167.283 226.205 164.494 229.351 167.416C231.235 169.164 229.473 172.913 230.761 175.345C235.361 184.034 239.73 192.467 245.563 200.544C246.53 201.882 251.606 208.593 253.669 207.768C254.163 207.571 253.895 206.712 253.845 206.182C253.478 202.33 252.401 198.672 252.964 194.729C253.744 189.269 255.988 183.894 254.726 178.341C252.562 168.817 244.1 162.819 241.51 153.495C235.315 131.192 247.829 110.628 254.374 90.0585C256.992 81.8294 255.449 73.9342 255.783 65.565C256.012 59.8575 258.074 54.374 258.074 48.6486C258.074 43.676 256.2 40.2235 255.431 35.6089C254.95 32.7208 255.905 35.0878 257.017 33.142C257.67 31.9993 254.553 23.1911 253.669 21.8644C251.504 18.6166 247.963 21.5123 244.065 20.4547Z" fill="#ec5286" fill-rule="nonzero" opacity="1" stroke="none"/>
<path d="M147.06 33.142C143.52 32.0799 137.705 32.6471 138.25 37.5473C139.029 44.5646 149.735 50.0802 153.052 56.0496C157.13 63.3913 154.16 70.0536 153.756 77.7237C153.475 83.0646 153.404 88.5963 153.404 93.9352C153.404 95.4337 153.42 98.0208 154.109 99.3978C154.703 100.587 158.127 100.7 157.281 102.393C156.486 103.984 152.153 102.431 150.937 103.979C149.337 106.016 150.318 114.133 150.585 116.667C151.565 125.985 155.859 137.087 153.052 146.446C150.025 156.534 140.935 160.759 135.959 169.354C133.782 173.115 133.278 177.259 132.258 181.337C131.459 184.532 129.335 187.194 128.734 190.5C127.039 199.822 125.773 221.558 140.012 220.808C153.26 220.111 155.389 201.406 164.505 199.486C171.374 198.04 195.185 211.676 197.819 202.727C198.738 199.607 197.731 193.713 199.182 190.726C200.734 187.532 201.277 178.478 201.153 178.373C199.253 176.765 191.291 179.001 188.999 179.574C182.797 181.125 176.947 177.569 170.673 177.284C169.212 177.217 165.156 178.287 163.977 177.107C161.987 175.118 169.002 164.899 170.32 162.658C172.841 158.373 176.364 151.946 177.193 146.975C177.935 142.523 176.608 137.684 177.721 133.231C178.644 129.541 180.942 126.886 180.717 122.834C180.415 117.394 175.784 108.485 169.439 109.089C165.711 109.445 159.657 115.416 156.928 109.618C153.48 102.291 169.401 104.477 173.14 98.8692C175.772 94.921 176.974 89.5436 178.602 85.1246C181.19 78.0995 185.192 70.8432 184.417 63.0981C183.096 49.8838 167.919 37.8137 155.871 34.1992" fill="#ec5286" fill-rule="nonzero" opacity="1" stroke="none"/>
</g>
</g>
</svg>
