<svg height="100%" stroke-miterlimit="10" style="fill-rule:nonzero;clip-rule:evenodd;stroke-linecap:round;stroke-linejoin:round;" version="1.1" viewBox="0 0 400 400" width="100%" xml:space="preserve" xmlns="http://www.w3.org/2000/svg" xmlns:xlink="http://www.w3.org/1999/xlink">
<g id="Main">
<g opacity="1">
<path d="M120.432 42.4448C123.735 43.2072 124.86 46.3407 128.644 46.5509C130.205 46.6377 134.388 43.9181 135.286 45.8263C136.142 47.6442 133.616 50.2267 132.992 51.7439C131.508 55.3463 131.185 60.0862 130.818 63.9415C130.36 68.7469 130.431 73.6171 129.972 78.4336C129.493 83.4645 126.985 88.2458 125.866 93.1672C123.087 105.397 121.572 118.021 119.103 130.364C117.34 139.181 118.137 148.181 117.292 157.053C117.039 159.708 116.796 164.224 113.065 164.42C111.169 164.52 105.375 155.295 103.887 153.309C103.722 153.089 101.495 150.815 101.109 151.256C100.331 152.145 102.594 154.07 103.041 154.517C103.947 155.423 115.095 168.294 110.166 167.802C107.644 167.549 104.764 163.002 103.041 161.28C96.0692 154.308 94.2093 142.037 93.0175 132.9C91.9086 124.398 91.8098 116.218 91.8098 107.539C91.8098 105.114 91.1457 102.406 91.9306 100.051C93.9157 94.0954 100.873 90.6253 104.973 86.525C105.41 86.0884 107.647 84.8703 107.751 84.3512C108.027 82.9701 106.524 79.866 106.785 77.9505C107.304 74.1446 111.157 70.8017 112.34 67.0814C113.188 64.4174 114.283 55.2947 112.22 53.0724C110.566 51.2919 105.148 51.8229 106.423 48.0002C107.557 44.5986 115.025 43.0496 118.016 41.7202" fill="#ec5286" fill-rule="nonzero" opacity="1" stroke="none"/>
<path d="M297.427 213.9C292.158 209.783 288.716 224.203 284.989 227.272C283.969 228.112 279.742 230.942 280.784 232.878C280.983 233.247 281.535 233.306 281.952 233.345C285.775 233.709 286.905 231.43 291.646 233.462C293.663 234.327 302.596 240.759 304.376 237.199C305.428 235.096 303.484 229.035 301.69 227.739C300.077 226.575 297.926 226.201 297.485 223.885C296.779 220.178 300.859 216.581 297.427 213.9Z" fill="#ec5286" fill-rule="nonzero" opacity="1" stroke="none"/>
<path d="M285.356 242.19C277.04 242.654 270.073 247.444 264.875 254.808C260.673 260.761 258.047 266.128 256.097 273.277C251.831 288.92 254.407 312.851 237.08 321.005C232.794 323.021 225.794 325.999 220.988 325.759C215.738 325.497 209.191 321.217 204.164 319.542C198.166 317.542 190.163 318.442 184.049 319.359C180.027 319.962 166.436 327.123 164.117 325.759C158.306 322.341 165.165 316.056 164.665 311.313C164.514 309.878 162.927 308.841 162.471 307.473C161.506 304.578 164.841 301.961 163.934 298.695C163.02 295.403 159.603 295.487 158.265 292.478C157.361 290.444 157.928 287.73 156.437 285.895C154.052 282.96 146.975 281.867 143.453 282.237C135.303 283.095 128.879 287.488 126.264 295.769C124.631 300.939 131.159 304.843 131.933 309.484C132.374 312.132 131.132 316.046 132.481 318.445C133.14 319.615 135.32 319.392 136.139 320.456C136.817 321.338 133.672 337.985 132.847 339.84C132.215 341.261 130.583 342.008 129.738 343.314C124.965 350.691 136.714 364.722 142.905 367.818C146.007 369.369 150.334 368.372 153.694 368.549C157.677 368.759 162.238 370.086 166.128 371.109C172.058 372.67 176.992 376.636 182.952 378.424C192.005 381.14 201.595 378.881 210.747 379.338C215.711 379.586 220.785 380.447 225.742 379.704C230.642 378.969 232.867 376.074 236.714 373.669C239.422 371.977 243.907 372.21 246.954 370.927C252.602 368.548 256.37 363.021 261.583 359.955C264.238 358.393 267.423 358.98 269.995 357.212C277.971 351.729 278.154 341.417 283.893 334.354C286.348 331.332 288.083 327.738 290.476 324.662C292.838 321.625 296.102 320.541 297.973 316.799C300.342 312.062 297.282 308.139 298.705 303.633C300.002 299.524 304.885 296.945 305.471 292.844C305.973 289.33 303.016 286.985 303.642 283.7C306.621 268.062 312.881 258.545 303.459 243.47L294.133 243.287C291.053 242.389 288.128 242.035 285.356 242.19ZM172.346 338.925C175.115 338.648 177.964 339.889 180.757 340.022C183.702 340.163 186.661 338.964 189.535 339.108C192.298 339.246 192.119 341.606 194.289 342.583C198.566 344.507 203.201 341.206 207.273 340.754C210.381 340.408 212.357 343.065 215.502 342.765C218.621 342.468 221.681 341.314 224.828 340.937C227.518 340.614 230.405 341.312 233.057 340.754C237.189 339.884 240.524 337.481 244.76 340.022L246.223 342.765C232.347 358.953 205.381 351.543 186.792 351.543C178.923 351.543 170.401 354.109 162.654 353.372C157.17 352.849 157.273 346.087 154.974 346.24C154.829 346.25 143.658 355.723 142.356 356.663C141.562 357.237 137.761 359.494 137.236 357.395C136.868 355.923 139.479 354.604 140.344 354.103C142.423 352.9 144.826 351.702 146.745 350.263C149.24 348.392 152.33 341.189 155.522 341.668C158.202 342.07 161.095 343.759 163.934 342.765C166.671 341.807 169.465 339.213 172.346 338.925Z" fill="#ec5286" fill-rule="nonzero" opacity="1" stroke="none"/>
<path d="M140.587 63.7807C141.51 54.4872 159.633 62.391 168.39 59.6048C176.605 56.9909 183.762 49.8114 191.907 46.4176C202.999 41.7959 216.178 44.9372 227.512 46.6374C232.247 47.3475 232.35 55.653 234.765 59.6048C239.334 67.0806 249.443 72.0154 258.282 70.1545C261.491 69.4791 267.013 56.6639 266.414 53.6705C265.861 50.9014 261.06 49.7767 261.799 46.6374C262.263 44.6669 265.108 43.2055 265.975 41.3625C267.326 38.4918 265.111 35.8365 266.414 33.2304C267.455 31.149 270.108 30.1674 268.832 27.2962C267.838 25.0601 264.636 23.7577 262.678 22.6807C251.984 16.7988 242.242 22.1251 231.249 24.2192C221.861 26.0072 212.865 26.4028 203.336 26.8566C195.664 27.2219 186.967 25.7495 179.599 28.6149C171.977 31.5788 165.27 37.0926 157.4 40.0438C152.976 41.7028 135.574 44.5143 135.524 48.2168C135.454 53.3993 133.647 58.5898 134.323 61.8026C135.522 67.4982 132.987 73.6995 131.685 79.1657C129.643 87.7441 129.646 96.3358 127.51 104.881C126.439 109.164 124.84 113.456 124.213 117.848C123.187 125.026 124.195 132.399 123.114 139.607C121.314 151.604 117.769 166.226 120.916 178.289C121.748 181.479 125.493 185.479 129.268 184.883C133.16 184.268 135.792 179.004 139.378 177.41C140.678 176.832 142.27 177.143 143.554 176.531C147.594 174.607 150.198 170.242 154.323 168.179C156.979 166.851 160.134 166.766 162.895 165.762C165.524 164.806 166.822 162.744 169.269 161.586C173.771 159.453 177.707 163.159 182.017 162.025C198.441 157.703 214.416 160.926 231.249 160.926C235.082 160.926 237.679 159.267 241.579 160.047C251.919 162.115 260.671 169.6 262.239 180.048C262.69 183.055 261.75 186.128 262.239 189.059C262.465 190.417 263.663 191.46 263.997 192.795C265.646 199.391 263.337 208.015 263.337 214.774C263.337 218.265 261.874 236.042 264.656 237.632C267.721 239.383 269.556 234.232 270.59 232.577C273.327 228.198 275.129 225.441 276.305 220.269C276.687 218.589 276.048 215.068 276.744 213.675C278.453 210.258 295.526 213.397 294.987 204.224C294.763 200.426 291.69 196.278 291.69 191.916C291.69 181.535 299.944 165.908 291.985 157.562C277.825 142.713 256.522 128.154 236.956 126.375C231.327 125.864 221.957 125.67 215.948 124.526C204.247 122.297 184.171 122.495 180.342 124.726C173.581 128.666 166.005 130.818 158.499 132.794C153.591 134.085 149.871 144.93 147.29 145.102C142.56 145.417 140.866 131.943 141.136 128.837C141.704 122.309 145.571 116.336 146.851 109.936C149.534 96.5201 139.236 77.3859 140.587 63.7807Z" fill="#ec5286" fill-rule="nonzero" opacity="1" stroke="none"/>
</g>
</g>
</svg>
