<svg height="100%" stroke-miterlimit="10" style="fill-rule:nonzero;clip-rule:evenodd;stroke-linecap:round;stroke-linejoin:round;" version="1.1" viewBox="0 0 400 400" width="100%" xml:space="preserve" xmlns="http://www.w3.org/2000/svg" xmlns:xlink="http://www.w3.org/1999/xlink">
<g id="Main">
<g opacity="1">
<path d="M198.56 313.591C197.377 313 197.546 316.175 197.655 316.757C198.37 320.566 199.096 324.311 199.691 328.177C200.592 334.033 200.894 339.812 202.178 345.589C202.339 346.313 202.961 349.633 203.874 349.999C204.033 350.062 204.343 346.845 204.439 345.815C204.564 344.485 204.765 343.039 205.118 341.745C207.172 334.213 204.474 325.646 203.083 318.227C202.911 317.314 202.065 316.007 202.065 315.174" fill="#ec5286" fill-rule="nonzero" opacity="1" stroke="none"/>
<path d="M209.98 342.31C206.817 342.31 209.039 350.058 207.718 352.26C206.454 354.368 201.104 349.715 200.482 352.825C199.416 358.158 202.195 363.659 202.63 368.881C202.853 371.551 202.166 375.33 203.648 377.7C208.475 385.424 212.213 371.449 212.467 368.655C212.803 364.955 211.646 360.548 212.354 357.009C212.634 355.611 213.96 354.657 214.276 353.391C215.218 349.625 213.434 347.134 212.354 343.893" fill="#ec5286" fill-rule="nonzero" opacity="1" stroke="none"/>
<path d="M218.928 306.906C220.494 304.038 223.505 301.153 223.994 297.731C224.515 294.086 221.937 292.476 218.833 294.959C216.583 296.759 216.951 301.701 215.87 304.135C215.033 306.017 212.432 307.19 211.091 308.722C209.795 310.204 208.757 313.252 208.319 315.222C207.107 320.678 208.843 325.987 209.561 331.374C209.867 333.67 209.145 336.32 210.326 338.447C211.018 339.693 214.974 346.807 216.156 345.329C217.597 343.528 216.327 338.812 216.443 336.727C216.794 330.409 219.105 324.313 219.406 317.993C219.58 314.349 217.171 310.125 218.928 306.906Z" fill="#ec5286" fill-rule="nonzero" opacity="1" stroke="none"/>
<path d="M206.798 308.179C206.64 308.127 206.411 307.929 206.311 308.063C205.457 309.215 204.397 310.363 204.132 311.773C203.927 312.86 204.476 314.006 205.013 314.973C206.491 317.633 208.567 308.754 206.798 308.179Z" fill="#ec5286" fill-rule="nonzero" opacity="1" stroke="none"/>
<path d="M108.155 251.877C107.992 251.75 106.651 251.117 106.122 251.353C104.251 252.184 103.554 254.838 102.187 256.206C100.873 257.52 99.0107 258.07 97.7265 259.354C97.2608 259.82 95.2188 263.872 96.1524 264.339C98.8056 265.666 111.955 254.839 108.155 251.877Z" fill="#ec5286" fill-rule="nonzero" opacity="1" stroke="none"/>
<path d="M204.726 201.718C202.01 197.071 200.301 206.939 200.176 208.567C200.061 210.053 201.485 216.976 199.984 217.477C198.19 218.074 197.899 212.863 197.685 212.112C196.511 208.003 195.427 204.776 192.416 201.766C192.371 201.721 192.416 201.638 192.416 201.574C192.416 200.693 195.92 193.899 192.033 194.677C187.039 195.675 189.518 204.198 190.213 207.322C190.948 210.632 187.949 205.783 187.147 209.525C186.974 210.333 186.853 211.333 187.243 212.112C188.757 215.141 198.259 219.538 196.248 224.566C194.883 227.979 183.201 226.387 187.626 233.762C189.021 236.087 198.903 229.63 197.685 233.283C197.084 235.087 193.96 236.805 192.991 238.744C192.124 240.478 192.118 243.293 190.5 244.588C189.793 245.153 185.378 242.744 186.285 245.162C186.996 247.058 189.165 247.986 190.404 249.473C192.193 251.62 192.85 255.072 195.098 256.946C196.997 258.527 200.243 258.833 201.9 260.49C203.33 261.92 200.565 271.366 202.762 272.465C204.737 273.452 204.113 265.624 204.487 264.801C206.582 260.19 210.404 256.761 208.989 251.102C208.577 249.453 207.886 249.506 206.498 249.186C205.6 248.978 204.564 248.472 203.624 248.707C200.593 249.465 198.954 257.913 197.206 250.335C197.037 249.604 196.823 249.002 196.823 248.228C196.823 247.066 196.707 245.838 196.823 244.683C196.993 242.979 198.528 242.31 199.313 240.851C201.055 237.617 203.722 234.523 205.157 231.176C207.32 226.128 207.865 219.443 205.349 214.411C205.011 213.736 204.004 213.587 203.72 212.878C202.358 209.472 206.727 205.141 204.726 201.718Z" fill="#ec5286" fill-rule="nonzero" opacity="1" stroke="none"/>
<path d="M181.009 248.11C182.812 244.908 191.858 249.626 190.098 254.32C188.778 257.84 183.166 259.003 180.919 261.699C179.477 263.429 179.82 265.273 179.569 267.279C179.476 268.023 178.905 269.228 179.119 269.978C180.369 274.354 186.119 273.433 189.288 275.018C191.281 276.014 192.157 278.56 193.518 280.148C194.229 280.977 194.97 280.784 195.858 281.227C198.313 282.455 200.051 284.989 200.897 287.527C202.339 291.852 198.013 295.838 197.477 300.126C197.201 302.338 202.533 307.002 199.547 308.495C197.283 309.627 193.515 305.664 193.068 303.725C191.756 298.039 197.768 292.506 193.698 286.807C191.858 284.231 188.161 280.912 185.239 279.788C182.684 278.805 179.981 280.208 177.679 278.438C172.183 274.21 170.53 262.915 174.889 257.829C175.723 256.857 183.448 251.568 183.259 250.81C182.879 249.292 179.322 251.107 181.009 248.11Z" fill="#ec5286" fill-rule="nonzero" opacity="1" stroke="none"/>
<path d="M217.263 245.134C216.406 244.705 214.281 242.939 213.442 244.115C211.539 246.779 217.305 251.544 216.414 254.219C215.244 257.728 211.615 258.317 211.913 262.795C212.107 265.697 216.937 266.235 215.819 269.588C215.398 270.853 209.816 273.401 208.432 275.361C203.9 281.782 204.304 288.588 203.422 296.079C203.197 297.993 200.739 305.014 204.187 305.589C210.033 306.563 208.782 292.362 210.3 288.947C211.241 286.83 214.085 285.877 214.376 283.258C214.597 281.267 211.43 277.223 212.762 275.446C214.196 273.536 215.224 277.908 216.074 278.333C217.263 278.928 219.538 277.875 220.489 278.588C221.3 279.196 220.724 281.542 221.848 281.73C223.704 282.039 227.651 278.408 227.961 276.55C228.04 276.079 226.598 274.804 226.942 274.597C227.65 274.172 232.073 276.422 231.358 273.324C229.757 266.388 219.235 271.084 220.15 265.597C220.427 263.933 222.671 260.091 224.225 259.314C226.342 258.255 229.805 259.49 232.037 259.738C235.441 260.116 239.327 260.248 242.735 260.248C244.172 260.248 247.309 260.136 248.509 261.097C250.173 262.428 249.97 270.908 248.085 270.437C246.329 269.998 245.209 266.778 244.264 265.427C242.334 262.67 236.613 261.223 233.905 263.389C229.495 266.917 236.261 266.425 237.896 267.125C239.82 267.95 241.374 271.215 241.037 273.239C240.828 274.496 239.403 276.932 238.235 277.399C236.016 278.287 235.001 275.933 233.056 276.21C229.34 276.741 225.1 285.382 228.301 288.183C231.534 291.012 231.901 281.723 234.414 281.22C236.201 280.863 238.439 283.329 241.377 282.154C244.984 280.711 246.418 276.642 248.424 273.833C249.185 272.769 250.767 272.346 251.651 271.286C254.122 268.32 255.583 263.012 254.792 259.059C253.498 252.587 237.46 253.471 232.122 253.115C231.298 253.06 226.234 254.095 225.754 253.455C223.793 250.841 227.653 246.533 229.405 245.219C233.791 241.929 241.258 241.816 239.594 234.605C239.133 232.609 237.855 230.717 236.282 229.341C232.769 226.267 227.306 227.476 223.121 226.878C222.363 226.77 221.38 226.507 220.744 226.029C220.508 225.852 220.181 225.234 220.065 225.35C219.071 226.344 219.102 230.203 219.725 231.294C220.254 232.219 222.704 232.207 223.631 232.737C225.368 233.73 229.454 238.993 228.895 241.228C228.263 243.757 223.551 241.791 221.848 242.926C220.478 243.84 219.905 250.929 219.046 249.209C218.719 248.555 218.536 248.088 218.536 247.341" fill="#ec5286" fill-rule="nonzero" opacity="1" stroke="none"/>
<path d="M265.027 185.44C269.371 185.44 270.759 182.031 274.25 180.445C279.405 178.101 287.206 180.248 292.182 182.238C298.404 184.727 302.418 188.905 308.962 185.056C309.689 184.628 313.789 182.284 313.19 181.085C312.976 180.658 304.284 179.516 303.455 179.42C298.619 178.862 293.662 179.682 288.852 178.651C283.186 177.437 276.409 175.859 270.663 177.627C269.097 178.108 254.844 187.229 255.676 180.573C256.323 175.396 264.672 169.927 269.51 171.863C271.012 172.463 269.862 175.517 271.047 175.961C273.598 176.918 276.248 176.525 278.861 176.218C281.042 175.961 297.006 177.389 296.025 174.937C294.39 170.849 289.667 171.595 286.162 171.094C282.107 170.515 277.595 171.353 273.737 170.71C266.327 169.475 264.925 166.717 257.854 172.503C253.745 175.865 251.562 178.05 246.454 178.779C245.683 178.89 239.583 178.386 240.177 176.602C240.266 176.334 250.677 170.723 251.577 170.197C255.241 168.06 257.971 164.394 262.081 163.024C270.547 160.202 275.631 164.682 283.344 166.739C291.39 168.884 299.768 169.821 307.81 172.119C314.546 174.043 319.732 177.372 326.639 178.523C327.679 178.697 330.305 179.742 329.97 181.085C329.672 182.274 318.242 183.937 316.648 184.416C310.055 186.393 306.802 191.391 299.356 190.564C296.377 190.233 294.766 188.214 292.311 186.849C288.419 184.687 281.87 183.48 277.452 184.159C271.268 185.111 266.936 191.076 260.8 191.076C256.655 191.076 240.846 186.793 238.768 190.948C238.111 192.263 241.364 194.19 242.227 194.535C245.921 196.012 251.758 197.783 253.883 201.324C257.349 207.1 252.111 213.881 255.676 218.872C260.386 225.467 266.944 229.136 272.2 235.268C274.926 238.449 277.089 242.436 279.757 245.772C283.397 250.321 288.561 254.319 292.695 258.453C295.081 260.838 303.949 269.504 302.046 273.311C301.975 273.452 301.551 273.192 301.533 273.183C299.331 272.082 297.787 270.093 295.513 268.956C292.068 267.234 291.126 264.516 288.34 262.039C284.676 258.783 280.418 255.463 276.427 252.56C271.94 249.297 268.346 245.014 264.002 241.673C257.894 236.974 251.061 232.808 244.66 228.735C242.932 227.635 236.206 221.562 236.206 219.385C236.206 218.656 238.522 219.016 238.896 219.128C241.948 220.044 244.052 223.409 246.454 225.277C251.367 229.098 258.082 229.661 262.849 233.475C265.104 235.278 268.627 238.497 269.894 241.032C269.957 241.157 270.671 242.117 270.791 242.057C270.916 241.994 269.606 240.479 269.51 240.264C267.834 236.493 264.129 234.817 261.953 231.553C258.331 226.121 251.236 223.933 247.606 218.488C245.997 216.074 246.377 212.314 243.507 210.674C242.375 210.027 239.904 210.402 239.152 209.65C237.811 208.308 235.965 207.359 234.669 206.063C232.342 203.736 243.395 206.063 244.02 206.063C244.693 206.063 249.954 206.403 248.887 204.27C245.639 197.773 239.807 200.171 234.413 200.171C233.032 200.171 228.471 200.824 228.777 198.378C229.624 191.6 237.756 183.873 244.404 183.135C248.425 182.688 251.76 185.44 255.42 185.44" fill="#ec5286" fill-rule="nonzero" opacity="1" stroke="none"/>
<path d="M242.695 144.7C244.389 151.334 228.187 160.868 222.613 163.401C221.218 164.035 213.052 165.982 213.827 167.92C214.507 169.619 224.232 167.92 226.378 167.92C227.999 167.92 232.337 170.746 233.658 169.802C236.453 167.806 236.04 160.576 237.423 157.502C239.502 152.884 243.58 150.776 247.088 147.587C248.455 146.344 251.82 137.527 254.368 138.801C255.734 139.483 252.947 149.859 251.983 151.98C250.083 156.161 244.158 159.302 240.938 162.523C239.797 163.663 239.928 166.48 240.059 167.92C240.642 174.333 238.683 178.531 232.152 179.718C227.491 180.566 227.471 172.526 225.374 170.43C222.499 167.555 218.831 172.346 215.961 171.936C213.236 171.547 209.015 167.03 205.92 168.798C204.469 169.627 203.936 173.584 205.417 174.572C206.602 175.362 209.468 172.651 210.94 172.815C213.129 173.058 221.917 175.745 223.868 177.208C226.099 178.881 218.915 184.724 219.349 186.245C219.775 187.734 224.437 191.65 225.5 193.776C226.535 195.846 225.721 200.838 226.002 201.306C226.628 202.35 229.351 199.852 229.767 201.934C230.068 203.438 222.793 209.307 223.994 214.109C224.516 216.201 227.537 214.902 229.014 215.113C232.103 215.554 234.455 217.587 235.29 220.51C235.394 220.875 235.882 222.069 235.666 222.393C233.701 225.341 223.779 218.285 222.487 220.008C221.681 221.083 219.331 224.243 219.098 225.405C218.925 226.275 218.048 231.245 217.467 231.681C215.71 232.998 213.635 231.11 211.944 233.815C210.819 235.615 213.149 245.595 208.43 242.224C207.032 241.225 206.935 239.082 206.798 237.58C206.318 232.301 209.471 228.107 213.576 225.029C214.696 224.188 216.621 224.13 217.216 222.644C217.709 221.41 219.063 218.233 218.722 216.87C218.088 214.334 214.069 211.073 214.705 208.21C215.355 205.286 222.647 199.834 219.349 196.537C218.46 195.647 217.293 196.527 216.463 195.282C213.589 190.971 213.874 186.215 207.175 189.006C204.616 190.072 203.13 191.684 202.656 194.529C202.567 195.061 202.139 200.46 200.773 199.549C199.489 198.693 199.135 195.085 199.016 193.776C198.246 185.308 206.126 184.939 211.944 182.354C213.533 181.648 217.308 179.632 215.584 177.333C214.494 175.88 207.838 175.512 206.422 176.078C205.43 176.475 205.459 178.226 204.037 178.463C202.669 178.691 197.996 178.457 197.761 176.58C196.821 169.056 208.124 160.873 214.58 159.259C215.824 158.948 216.827 159.264 218.094 158.757C219.782 158.082 220.494 155.735 221.985 154.741C224.504 153.061 227.888 152.327 230.646 151.101C232.81 150.139 242.248 142.951 242.695 144.7Z" fill="#ec5286" fill-rule="nonzero" opacity="1" stroke="none"/>
<path d="M295.016 94.9813C293.43 92.6021 290.731 95.9153 289.065 96.8412C283.335 100.025 279.9 106.506 274.31 109.861C268.684 113.236 263.139 115.485 256.95 117.548C254.787 118.269 252.096 117.273 250.007 118.168C247.876 119.081 244.562 124.816 243.311 126.848C241.471 129.838 238.157 133.338 239.839 137.263C241.307 140.688 246.185 136.881 247.403 135.527C249.968 132.677 250.619 128.333 253.231 125.484C257.9 120.39 263.28 120.893 268.978 118.044C270.31 117.378 276.08 111.933 277.781 113.208C280.384 115.16 274.243 120.564 273.07 121.268C267.083 124.86 260.159 125.154 254.594 129.328C253.205 130.37 249.724 133.686 251.495 135.899C253.917 138.928 264.813 130.974 267.242 129.824C269.715 128.652 278.677 124.499 280.137 122.508C282.888 118.756 284.853 114.568 288.073 111.1C292.35 106.494 297.496 101.382 297.496 94.7333" fill="#ec5286" fill-rule="nonzero" opacity="1" stroke="none"/>
<path d="M306.548 86.4257C304.261 85.2822 298.322 90.913 301.836 92.3774C305.511 93.9087 307.942 88.4602 310.02 86.7977C312.022 85.1962 312.366 88.4525 314.112 88.1616C315.875 87.8677 318.884 82.0492 318.327 80.102C316.491 73.674 309.945 83.4254 308.16 84.3178" fill="#ec5286" fill-rule="nonzero" opacity="1" stroke="none"/>
<path d="M186.787 206.71C184.6 206.71 182.181 205.565 179.913 205.263C178.131 205.025 176.833 206.31 175.21 206.107C173.871 205.939 172.67 204.943 171.23 205.263C167.137 206.172 165.777 210.52 162.909 213.101C158.281 217.267 152.546 221.249 147.232 224.437C145.788 225.303 133.311 234.757 134.81 236.256C135.855 237.3 143.19 231.981 144.217 231.311C151.528 226.543 157.542 220.492 165.201 216.237C168.285 214.523 172.654 211.554 176.175 211.051C179.063 210.639 182.048 210.889 184.858 210.086C186.088 209.735 189.028 206.71 186.787 206.71Z" fill="#ec5286" fill-rule="nonzero" opacity="1" stroke="none"/>
<path d="M133.604 236.799C133.309 235.394 129.725 237.614 128.419 238.065C126.804 238.622 123.055 242.278 122.509 243.733C122.362 244.125 122.881 244.461 123.112 244.577C125.141 245.592 127.139 243.744 128.419 242.406C128.963 241.837 130.17 240.152 130.71 239.633C131.7 238.681 133.887 238.144 133.604 236.799Z" fill="#ec5286" fill-rule="nonzero" opacity="1" stroke="none"/>
<path d="M122.027 245.904C121.326 244.683 119.741 244.338 118.409 243.853C112.541 241.72 111.138 248.009 119.253 246.386C120.02 246.233 122.394 246.543 122.027 245.904Z" fill="#ec5286" fill-rule="nonzero" opacity="1" stroke="none"/>
<path d="M187.27 197.484C184.146 196.147 180.967 189.545 176.537 191.515C172.703 193.218 170.827 200.119 168.577 203.333C167.421 204.985 166.103 204.932 164.598 205.986C163.268 206.917 161.746 208.568 159.894 208.157C145.863 205.039 171.753 199.112 167.733 193.082C166.086 190.611 154.714 194.119 151.814 194.409C151.342 194.456 147.554 193.725 147.473 193.806C147.159 194.12 147.352 194.688 147.352 195.132C147.352 196.094 147.604 197.464 147.352 198.389C146.821 200.338 143.513 202.372 144.82 204.66C146.026 206.77 154.849 205.544 153.262 211.895C152.329 215.627 148.316 217.202 145.905 219.614C140.537 224.982 135.663 230.581 129.866 235.653C128.127 237.174 123.158 241.354 120.58 240.839C117.793 240.281 123.143 235.099 123.595 234.688C128.457 230.268 136.991 227.98 140.719 222.387C142.913 219.097 143.519 214.715 145.543 211.172C145.747 210.816 146.587 209.911 146.267 209.483C144.61 207.275 138.352 206.645 137.825 204.539C136.147 197.825 145.344 199.682 143.493 193.203C143.137 191.955 139.145 189.858 137.825 190.188C131.76 191.704 126.975 199.074 120.339 194.65C118.412 193.366 116.938 191.522 115.032 190.188C114.018 189.478 106.638 186.791 107.314 184.761C107.909 182.976 112.698 185.009 113.585 185.364C118.216 187.216 123.329 193.23 129.022 190.067C130.241 189.39 133.206 187.391 132.76 185.605C132.221 183.449 128.912 183.246 127.213 183.435C119.845 184.253 116.213 186.424 110.691 180.902C109.323 179.534 107.552 178.867 108.158 176.44C109.073 172.782 114.193 175.401 116.721 175.596C123.309 176.103 128.404 177.854 134.448 180.54C136.366 181.392 138.452 183.994 140.478 184.399C142.403 184.784 143.817 186.201 145.664 186.57C149.324 187.302 153.136 188.085 156.879 188.62C160.29 189.107 163.465 187.058 166.768 186.691C171.433 186.172 176.12 186.593 180.758 187.173C183.069 187.462 187.962 188.337 189.441 190.309C190.459 191.666 188.857 198.164 187.27 197.484Z" fill="#ec5286" fill-rule="nonzero" opacity="1" stroke="none"/>
<path d="M104.901 177.834C101.898 174.83 94.108 176.3 90.7961 177.542C88.7377 178.314 87.2127 180.377 84.9595 180.752C80.9198 181.425 77.1476 178.001 72.7026 179.779C71.4786 180.269 69.2237 181.509 70.2707 183.184C73.5994 188.51 86.9421 184.81 92.0607 185.13C94.6837 185.293 97.0058 186.589 99.6483 186.589C102.119 186.589 107.041 186.485 107.041 182.795" fill="#ec5286" fill-rule="nonzero" opacity="1" stroke="none"/>
<path d="M178.973 146.883C174.839 148.823 177.984 153.121 176.448 154.081C173.3 156.049 175.003 149.145 172.533 148.651C169.263 147.997 163.577 152.841 165.334 156.354C165.902 157.492 167.904 157.655 168.996 157.996C174.43 159.694 182.774 158.063 184.151 151.177C184.643 148.718 181.345 145.77 178.973 146.883Z" fill="#ec5286" fill-rule="nonzero" opacity="1" stroke="none"/>
<path d="M200.058 118.87C197.876 119.193 199.538 123.165 199.285 125.311C198.735 129.987 197.208 134.712 198.77 139.397C199.677 142.118 202.334 143.693 202.721 146.783C202.913 148.323 200.816 153.468 201.862 154.513C205.927 158.578 206.816 146.775 206.328 145.065C205.293 141.445 202.549 137.59 202.549 133.728C202.549 129.79 206.842 117.863 200.058 118.87Z" fill="#ec5286" fill-rule="nonzero" opacity="1" stroke="none"/>
<path d="M225.051 147.127C225.345 146.156 213.973 137.809 212.168 135.102C209.068 130.452 212.687 123.48 212.34 118.268C211.944 112.321 207.489 109.484 204.438 105.213C203.09 103.326 203.951 98.7144 202.721 97.4835C201.661 96.4241 197.974 96.3135 197.739 94.9069C197.396 92.8478 199.636 91.0592 198.77 88.8947C198.304 87.7314 193.07 82.1466 192.242 85.4592C190.176 93.7257 196.962 100.224 200.316 106.931C201.406 109.112 201.214 111.881 202.377 113.974C203.471 115.943 204.756 117.07 205.125 119.471C205.726 123.372 204.325 135.6 205.984 138.366C207.547 140.971 210.538 140.659 212.168 142.832C213.321 144.369 211.956 146.487 212.855 147.986C215.253 151.981 223.741 151.459 225.051 147.127Z" fill="#ec5286" fill-rule="nonzero" opacity="1" stroke="none"/>
<path d="M193.99 77.5569C191.38 77.3788 190.637 83.3337 193.926 83.1842C197.739 83.0109 196.515 77.7291 193.99 77.5569Z" fill="#ec5286" fill-rule="nonzero" opacity="1" stroke="none"/>
<path d="M198.795 71.4238C199.67 71.8734 192.555 72.9609 195.57 75.9762C196.969 77.3747 209.167 74.4201 209.86 75.3439C211.951 78.1323 201.189 77.3352 203.916 79.5169C208.356 83.0686 220.131 73.619 219.218 68.1359C218.39 63.1671 210.442 64.3691 206.825 64.5951C205.875 64.6545 202.284 64.1124 201.893 65.4803C201.005 68.59 211.344 67.9424 209.228 70.4121C208.034 71.8052 197.277 70.6436 198.795 71.4238Z" fill="#ec5286" fill-rule="nonzero" opacity="1" stroke="none"/>
<path d="M200.653 64.0996C194.504 64.4364 195.267 54.9454 192.984 56.087C190.566 57.2957 193.007 62.061 192.526 63.9851C191.657 67.4594 185.845 67.2127 184.055 70.2807C181.789 74.166 189.56 72.9695 189.092 75.7751C188.525 79.1762 182.532 78.1157 180.736 77.1486C174.828 73.9673 179.069 72.1074 180.049 68.6782C180.49 67.1359 179.173 65.7773 180.507 64.443C181.69 63.2602 183.998 63.5473 184.971 61.9247C186.581 59.2412 186.895 54.8664 187.032 51.8518C187.281 46.3667 188.251 40.6071 187.947 35.1398C187.8 32.493 187.146 29.8838 187.146 27.2417C187.146 25.429 186.733 20.5938 189.55 20.0304C192.763 19.3877 193.232 29.1346 193.442 31.0191C193.667 33.0471 193.405 35.1425 194.472 36.9713C195.868 39.3651 198.723 40.5182 199.165 43.6103C199.759 47.7659 197.64 52.1271 198.478 56.3159C198.808 57.9636 204.692 63.8783 200.653 64.0996Z" fill="#ec5286" fill-rule="nonzero" opacity="1" stroke="none"/>
<path d="M186.551 80.3762C185.145 80.3114 184.834 82.9811 185.139 84.3547C185.312 85.1316 186.269 85.7381 187.065 85.7665C189.694 85.8604 190.733 80.5691 186.551 80.3762Z" fill="#ec5286" fill-rule="nonzero" opacity="1" stroke="none"/>
<path d="M188.797 87.5633C187.849 88.6804 185.414 85.0334 184.369 90.2584C183.494 94.6367 187.063 98.8343 188.605 102.579C191.483 109.569 193.817 117.468 192.07 125.039C190.686 131.034 180.794 130.359 176.284 131.712C174.716 132.183 171.581 132.163 171.279 134.279C169.983 143.35 181.845 133.68 183.728 135.562C186.084 137.919 179.55 140.156 180.647 144.546C181.133 146.489 188.091 152.65 190.401 151.99C191.856 151.575 193.012 149.355 194.637 149.68C197.052 150.163 194.23 155.48 197.46 154.942C200.782 154.388 197.906 147.046 196.562 145.701C195.423 144.562 184.912 148.708 187.193 143.006C187.776 141.549 190.08 140.908 191.171 139.926C192.809 138.453 194.432 135.998 195.663 134.151C200.029 127.602 198.124 115.976 197.203 108.611C196.675 104.38 193.234 98.2729 191.043 94.622C190.226 93.2598 190.544 85.505 188.797 87.5633Z" fill="#ec5286" fill-rule="nonzero" opacity="1" stroke="none"/>
<path d="M168.746 137.53C175.025 133.86 171.749 152.133 163.285 144.879C162.002 143.779 159.448 140.716 158.897 139.061C156.964 133.263 163.55 124.73 158.182 119.363C155.662 116.843 150.509 118.312 147.465 118.036C144.89 117.802 142.439 116.978 139.913 116.505C138.385 116.218 135.422 116.339 135.422 118.546C135.422 120.526 139.851 120.353 140.933 120.281C146.077 119.938 152.49 118.585 155.528 123.649C157.413 126.79 151.903 131.392 151.344 134.468C150.462 139.317 154.111 138.62 155.528 142.021C157.882 147.669 154.31 160.06 161.04 162.944C169.046 166.376 175.623 160.512 182.474 157.943C185.47 156.82 189.009 156.923 192.17 156.923C194.774 156.923 201.658 156.089 202.376 159.678C202.847 162.032 198.235 162.705 196.865 162.842C192.712 163.258 180.074 163.842 179.208 169.476C178.066 176.894 186.47 174.077 190.333 176.009C192.889 177.287 194.08 182.06 191.966 184.174C189.534 186.605 183.725 188.067 182.167 184.174C181.817 183.297 182.377 179.625 181.963 179.377C179.685 178.01 174.862 177.231 173.594 174.274C172.467 171.644 176.35 165.19 170.736 165.19C165.884 165.19 164.768 173.717 166.551 176.927C167.423 178.497 169.56 178.94 170.532 180.397C171.146 181.318 171.416 182.881 170.532 183.766C169.166 185.132 166.692 185.297 164.918 185.297C163.084 185.297 160.755 185.983 159.101 184.99C153.984 181.92 154.456 171.636 147.976 169.476C145.52 168.658 136.472 175.523 133.176 176.621C131.804 177.079 127.897 177.375 127.461 175.192C127.166 173.718 131.923 172.539 132.666 172.028C137.326 168.824 140.65 163.322 146.955 164.373C150.82 165.017 153.912 168.864 157.978 168.864C158.34 168.864 161.55 169.425 161.55 168.762C161.55 168.521 161.21 168.422 161.04 168.252C159.556 166.767 155.963 165.559 154.1 164.373C151.503 162.721 150.748 158.467 150.527 155.596C150.167 150.908 152.043 145.693 150.731 141.102C150.048 138.711 146.269 140.289 145.832 135.489C145.642 133.396 149.759 124.208 149.2 123.649C148.378 122.827 142.03 124.919 139.81 124.364C137.878 123.881 136.924 121.873 135.115 121.098C130.252 119.013 125.686 116.623 120.826 114.463C118.112 113.257 115.017 113.128 112.253 111.912C111.182 111.441 108.154 105.413 108.783 104.155C110.565 100.59 118.179 100.923 121.337 101.909C125.483 103.205 126.604 107.982 130.625 109.054C138.392 111.125 146.129 115.187 154.202 115.994C157.596 116.334 162.735 115.864 165.225 118.852C169.73 124.258 162.381 132.376 164 138.04C164.859 141.049 166.594 138.788 168.746 137.53Z" fill="#ec5286" fill-rule="nonzero" opacity="1" stroke="none"/>
</g>
</g>
</svg>
