<svg height="100%" stroke-miterlimit="10" style="fill-rule:nonzero;clip-rule:evenodd;stroke-linecap:round;stroke-linejoin:round;" version="1.1" viewBox="0 0 400 400" width="100%" xml:space="preserve" xmlns="http://www.w3.org/2000/svg" xmlns:xlink="http://www.w3.org/1999/xlink">
<g id="Main">
<g opacity="1">
<path d="M250.346 247.394C240.83 245.61 231.9 255.097 223.987 259.449C211.725 266.193 188.841 280.375 185.734 295.13C185.02 298.524 185.26 302.147 184.77 305.577C184.388 308.249 182.68 311.108 182.68 313.775C182.68 315.892 184.722 317.461 184.609 319.721C184.447 322.959 179.069 329.014 178.341 333.383C178.26 333.87 180.142 343.449 180.43 344.313C180.756 345.289 182.033 345.747 182.359 346.724C182.949 348.495 181.468 350.178 180.912 351.706C179.182 356.465 178.811 363.399 182.037 367.618C183.695 369.786 185.405 372.272 187.341 374.208C189.441 376.308 195.629 375.684 197.306 373.244C199.154 370.556 198.206 367.205 198.592 364.243C199.37 358.278 201.214 352.1 203.253 346.563C203.754 345.203 203.833 339.605 205.504 339.009C208.049 338.1 207.968 342.924 207.914 343.991C207.637 349.54 202.687 354.142 201.968 359.421C201.466 363.1 203.523 362.49 204.378 364.886C204.668 365.696 202.715 368.446 202.61 369.547C201.643 379.708 207.861 381.293 216.272 379.19C227.643 376.348 225.4 363.272 232.023 356.206C234.732 353.318 242.778 350.24 243.435 345.92C244.325 340.069 241.47 335.545 241.185 329.847C240.996 326.07 243.967 321.848 244.399 317.953C244.7 315.244 242.352 314.785 242.471 312.649C242.575 310.768 244.102 308.523 244.399 306.542C246.603 291.852 250.673 277.908 253.882 263.467C254.835 259.18 253.4 254.904 253.4 250.609" fill="#ec5286" fill-rule="nonzero" opacity="1" stroke="none"/>
<path d="M199.655 176.47C207.294 165.506 213.064 152.882 217.226 140.394C218.944 135.242 216.963 130.181 218.47 125.155C219.405 122.04 222.397 120.272 223.757 117.38C228.133 108.081 228.773 95.275 235.575 86.9026C240.231 81.1722 256.653 60.6814 250.503 52.071C247.314 47.6066 239.747 55.6709 237.441 57.6689C226.649 67.0224 212.372 76.634 198.567 80.9937C182.661 86.0164 166.688 79.0829 151.606 74.7737C147.19 73.512 139.873 68.7896 135.123 70.1088C124.883 72.9534 126.417 90.7375 116.152 95.2995C114.776 95.9114 109.163 98.1068 107.756 96.5435C106.883 95.5741 109.662 84.2765 104.646 86.5916C100.564 88.4756 106.476 96.4748 103.713 98.4095C100.742 100.489 98.6492 93.6054 98.4257 92.1896C97.4014 85.7025 103.403 81.6101 104.957 75.7067C106.631 69.3443 108.443 63.1022 110.866 57.0469C114.834 47.125 126.064 46.6832 135.123 47.095C150.189 47.7798 171.015 60.5129 183.797 53.6796C205.702 41.9688 219.378 35.9624 237.441 26.5692C243.813 23.2558 255.302 17.4019 262.632 21.2823C268.72 24.5052 275.556 33.8529 279.737 39.3201C282.752 43.2634 288.031 47.5332 289.378 52.382C291.285 59.2479 288.168 67.2468 287.823 74.1518C287.424 82.1332 292.095 89.0648 290.622 97.1655C289.379 103.998 283.967 111.387 280.981 117.691C276.686 126.757 273.169 136.833 271.029 146.614C267.394 163.231 274.467 179.56 272.895 196.063C271.945 206.033 263.13 212.147 258.589 220.32C255.991 224.998 256.02 229.109 252.058 233.071C249.354 235.775 246.489 236.201 243.35 238.047C230.86 245.394 220.034 256.258 207.275 263.549C205.512 264.556 197.947 268.866 195.768 267.281C193.039 265.296 200.886 251.473 201.677 248.31C203.33 241.696 199.42 232.073 198.878 225.296C197.886 212.907 193.898 200.808 194.524 188.288C194.724 184.282 196.887 180.443 199.655 176.47Z" fill="#ec5286" fill-rule="nonzero" opacity="1" stroke="none"/>
</g>
</g>
</svg>
