<svg height="100%" stroke-miterlimit="10" style="fill-rule:nonzero;clip-rule:evenodd;stroke-linecap:round;stroke-linejoin:round;" version="1.1" viewBox="0 0 400 400" width="100%" xml:space="preserve" xmlns="http://www.w3.org/2000/svg" xmlns:xlink="http://www.w3.org/1999/xlink">
<g id="Main">
<g opacity="1">
<path d="M122.679 48.7385C115.119 47.4785 105.131 61.6986 101.871 67.6252C99.2608 72.3714 94.9362 76.1243 92.7481 81.23C87.9567 92.4097 88.4956 102.94 90.0271 114.682C90.9325 121.623 92.4381 131.454 99.1503 135.649C104.16 138.781 110.826 125.245 111.795 121.564C113.424 115.372 110.757 104.735 109.074 98.6761C108.979 98.334 107.877 96.2306 107.953 95.7951C108.149 94.6892 110.271 92.9676 110.834 91.9538C112.69 88.6144 114.368 84.9073 116.436 81.7101C121.27 74.2394 136.674 61.776 125.88 53.3801" fill="#ec5286" fill-rule="nonzero" opacity="1" stroke="none"/>
<path d="M113.235 125.566C111.059 124.856 103.977 138.319 103.792 139.491C102.762 146.011 117.055 148.598 120.758 149.894C125.643 151.604 129.265 155.826 134.043 157.737C143.155 161.382 165.166 163.026 173.737 158.537C180.404 155.045 188.368 159.931 191.023 150.374C191.709 147.904 185.463 141.524 183.18 140.611C170.433 135.512 159.483 132.585 150.689 121.084C142.007 109.732 151.779 97.2001 144.766 85.8716C142.761 82.6321 138.901 75.1843 133.562 77.0685C129.146 78.6271 126.986 90.9024 126.2 94.8348C124.232 104.673 122.292 121.225 128.281 130.207C129.729 132.38 132.328 136.884 134.843 137.57C136.041 137.897 141.563 138.208 139.62 139.029C138.482 139.511 131.447 138.255 127.312 135.803C120.438 131.728 119.677 127.666 113.235 125.566Z" fill="#ec5286" fill-rule="nonzero" opacity="1" stroke="none"/>
<path d="M112.851 125.247" fill="#ec5286" fill-rule="nonzero" opacity="1" stroke="#010100" stroke-linecap="butt" stroke-linejoin="round" stroke-width="3.74816"/>
<path d="M129.119 69.8911C124.221 67.3278 126.152 80.9978 124.95 85.803C124.471 87.7207 122.825 89.3587 122.626 91.2539C122.538 92.083 122.301 97.3281 123.507 97.5866C124.966 97.8991 125.789 91.3328 125.992 90.4523C127.471 84.0458 135.45 73.2047 129.119 69.8911Z" fill="#ec5286" fill-rule="nonzero" opacity="1" stroke="none"/>
<path d="M132.993 39.8926C130.87 38.875 128.67 40.0784 126.541 41.2399C118.898 45.4084 132.226 56.7099 133.631 42.658C133.851 40.4574 135.207 40.9536 132.993 39.8926Z" fill="#ec5286" fill-rule="nonzero" opacity="1" stroke="none"/>
<path d="M138.382 33.3691C132.724 40.9867 139.244 45.8102 141.715 52.8687C142.352 54.6885 141.773 56.8501 142.282 58.6832C142.93 61.0168 144.85 63.0801 145.969 65.2067C146.678 66.5526 147.548 73.2075 149.231 73.432C150.79 73.6398 158.646 60.9794 159.725 59.3922C165.519 50.8726 175.353 40.574 186.812 41.6653C194.683 42.4149 203.886 46.7609 209.644 52.1597C211.731 54.1157 213.349 57.1718 214.324 59.8177C214.485 60.2546 214.426 61.094 214.891 61.094C216.73 61.094 216.409 54.7596 216.31 53.7196C215.949 49.9287 213.272 35.7239 214.75 33.4401C215.234 32.6914 215.213 28.1061 216.168 28.1929C217.693 28.3315 217.87 33.9326 217.87 34.8582C217.87 41.318 218.163 47.6839 217.87 54.1451C217.313 66.3823 226.243 78.899 231.058 89.5989C232.111 91.9385 236.595 110.242 239.709 107.751C242.567 105.465 246.182 87.7116 245.665 83.9263C245.171 80.299 240.807 78.7316 241.411 74.7083C242.068 70.3295 245.358 66.5468 244.247 61.6613C243.238 57.22 239.337 55.0161 237.298 51.3088C229.692 37.4801 221.357 23.3615 204.397 20.5349C197.322 19.3558 190.894 20.4627 183.834 20.6767C179.749 20.8005 175.657 20.1785 171.78 21.8112C168.293 23.2793 166.144 26.3843 162.42 27.6256C154.935 30.1204 143.453 26.5422 138.382 33.3691Z" fill="#ec5286" fill-rule="nonzero" opacity="1" stroke="none"/>
<path d="M216.026 61.6613C212.716 59.2255 215.543 70.4283 215.742 74.4247C216.144 82.4663 218.524 97.2736 213.331 104.064C208.031 110.996 202.976 120.801 196.172 126.329C193.573 128.441 181.215 133.625 182.983 136.965C185.002 140.779 189.904 140.767 193.336 142.212C196.183 143.411 200.032 145.764 202.979 146.325C212.978 148.23 217.049 136.973 223.259 131.86C228.31 127.7 234.098 123.658 236.589 117.253C238.861 111.412 234.172 105.753 231.767 100.944C229.24 95.8897 225.095 90.7121 223.4 85.3444C220.91 77.4569 222.702 66.5737 216.026 61.6613Z" fill="#ec5286" fill-rule="nonzero" opacity="1" stroke="none"/>
<path d="M207.866 174.35C202.834 175.608 206.095 165.634 202.093 167.134C195.92 169.449 207.364 180.186 207.473 182.353C207.817 189.242 209.125 199.087 215.082 203.476C218.147 205.734 222.407 205.949 225.971 206.887C229.425 207.796 233.269 209.797 236.336 211.61C241.988 214.95 247.659 222.16 251.554 227.353C256.865 234.435 250.767 240.095 247.881 246.508C245.738 251.27 245.818 256.519 245.126 261.595C244.669 264.944 243.561 270.587 246.438 273.272C248.358 275.064 251.38 275.768 253.522 277.339C262.796 284.14 273.067 290.296 280.811 298.855C285.262 303.775 288.579 309.557 292.094 315.123C292.809 316.256 295.434 317.911 296.817 316.96C299.247 315.289 299.262 305.099 297.211 303.185C296.061 302.112 294.388 302.454 293.143 301.348C292.253 300.556 291.287 298.725 292.487 297.674C294.528 295.889 297.312 295.092 299.31 292.951C305.721 286.082 311.785 273.801 310.986 264.219C310.779 261.731 310.362 257.781 308.887 255.692C308.102 254.58 305.671 254.125 306.001 252.805C306.287 251.659 308.1 251.558 308.756 250.575C311.246 246.84 310.138 240.105 308.887 236.143C306.765 229.423 302.605 226.966 300.436 220.459C298.96 216.032 305.027 212.856 301.54 207.149C298.976 202.953 293.674 206.293 291.628 202.951C290.777 201.561 291.384 198.893 291.176 196.916C291.025 195.487 288.667 192.881 287.896 191.668C283.166 184.236 273.384 173.169 263.756 173.169C249.961 173.169 260.937 183.855 266.511 187.338C268.558 188.618 269.005 189.446 270.775 191.32C272.041 192.661 279.299 196.496 274.925 195.622C267.702 194.177 261.578 185.328 256.358 180.107C254.093 177.842 251.958 172.179 249.193 170.545C241.876 166.222 232.843 166.457 224.659 166.085C219.074 165.831 212.632 164.366 208.784 169.496" fill="#ec5286" fill-rule="nonzero" opacity="1" stroke="none"/>
<path d="M243.795 273.79C234.959 271.563 232.48 288.335 227.824 293.708C226.145 295.645 223.265 297.121 221.031 298.297C210.864 303.648 200.239 308.857 189.823 313.718C187.399 314.849 179.523 316.834 179.175 319.959C178.956 321.931 180.638 324.61 181.011 326.568C182.441 334.074 183.912 341.66 183.214 349.332C183.075 350.867 179.215 359.692 176.973 355.206C175.941 353.144 181.238 341.319 180.828 337.216C180.497 333.905 177.385 332.645 177.523 329.873C177.611 328.12 178.456 319.73 176.422 318.858C173.044 317.41 168.748 327.523 161.368 320.143C151.823 310.597 155.555 302.15 153.107 290.403C152.224 286.164 146.871 283.357 146.682 279.389C146.574 277.122 148.475 276.29 148.702 274.249C148.815 273.231 147.662 266.076 147.417 264.519C146.699 259.973 142.898 256.226 142.276 251.669C141.395 245.201 145.738 237.749 145.397 230.924C145.251 227.999 142.988 225.14 143.745 222.113C145.078 216.78 149.961 215.634 152.74 211.465C155.394 207.485 156.132 202.307 159.9 198.982C167.641 192.151 177.502 196.842 186.151 197.88C189.758 198.313 193.402 197.871 196.982 198.247C200.517 198.619 206.171 201.059 209.649 199.9C210.185 199.721 210.934 199.362 210.934 198.798C210.934 198.133 208.292 196.304 207.997 196.045C205.594 193.924 204.133 190.996 203.224 187.967C201.201 181.223 201.693 169.193 192.76 167.406C179.13 164.68 165.043 177.438 153.475 182.643C140.051 188.684 127.228 195.856 116.759 206.325C109.734 213.35 108.187 224.235 103.358 232.576C102.038 234.857 100.114 236.314 99.5029 239.002C98.4601 243.59 102.725 245.808 101.522 250.016C99.2377 258.012 95.5895 264.734 94.7299 273.331C93.4464 286.165 96.0154 299.893 97.4835 312.616C98.7021 323.177 94.8857 332.279 99.5029 342.539C103.488 351.395 107.486 348.356 114.923 347.68C120.279 347.193 124.268 348.559 128.875 350.984C129.727 351.432 133.736 352.309 134.199 353.003C135.913 355.575 130.4 355.281 129.61 355.206C127.123 354.969 105.843 349.047 108.131 356.675C110.169 363.469 116.233 359.31 120.247 359.979C123.063 360.449 124.974 363.716 128.141 364.018C131.611 364.348 138.885 363.157 141.909 364.936C143.756 366.022 143.689 368.357 146.315 368.607C148.816 368.846 149.237 366.188 151.639 366.588C155.222 367.185 155.238 371.392 156.595 373.564C158.945 377.322 164.482 378.454 168.344 379.806C172.168 381.144 186.051 375.16 191.475 374.482C201.701 373.204 211.705 375.297 221.765 372.279C226.615 370.824 229.452 366.699 233.698 364.202C237.371 362.041 240.559 364.23 244.345 363.284C248.655 362.206 251.677 357.829 255.727 356.124C261.927 353.514 268.873 354.581 274.819 350.617C279.455 347.526 279.595 341.212 282.162 336.848C285.483 331.204 293.892 328.969 294.279 321.244C294.538 316.062 287.963 313.169 285.467 309.312C278.709 298.868 267.289 290.951 257.379 283.795C252.694 280.411 249.54 275.237 243.795 273.79Z" fill="#ec5286" fill-rule="nonzero" opacity="1" stroke="none"/>
</g>
</g>
</svg>
