<svg height="100%" stroke-miterlimit="10" style="fill-rule:nonzero;clip-rule:evenodd;stroke-linecap:round;stroke-linejoin:round;" version="1.1" viewBox="0 0 400 400" width="100%" xml:space="preserve" xmlns="http://www.w3.org/2000/svg" xmlns:xlink="http://www.w3.org/1999/xlink">
<g id="Main">
<g opacity="1">
<path d="M218.551 349.162C218.083 343.08 219.437 335.552 213.277 331.445C212.233 330.749 210.853 329.859 209.626 329.552C208.75 329.333 207.559 330.055 206.921 329.417C205.322 327.817 210.164 324.881 210.978 324.548C213.536 323.502 217.708 325.471 219.904 324.007C221.546 322.913 216.386 313.354 214.765 312.782C212.804 312.09 209.616 314.708 208.273 315.893C206.265 317.664 204.682 319.776 202.864 321.708C200.57 324.145 197.396 325.553 195.02 327.929C189.455 333.493 182.288 337.701 175.816 342.129C172.237 344.578 169.07 347.615 165.538 350.108C162.745 352.079 159.117 352.426 156.477 354.571C151.679 358.47 150.669 367.614 152.69 373.099C157.15 385.206 171.394 385.27 182.037 385.27C184.073 385.27 185.711 386.701 187.717 386.352C190.288 385.905 194.784 383.971 197.184 382.701C200.682 380.849 203.49 376.696 206.786 374.316C209.219 372.559 212.83 369.636 214.629 367.284C215.664 365.93 216.114 363.649 216.387 362.009C216.455 361.607 216.119 360.85 216.523 360.792C218.139 360.561 216.724 366.191 220.309 364.714C225.993 362.374 230.396 354.807 234.104 350.243C238.618 344.687 250.224 344.33 252.767 337.125C255.132 330.424 237.201 332.896 234.374 333.744C228.638 335.465 221.936 339.482 219.633 345.24C218.656 347.683 220.715 353.82 218.551 354.301" fill="#ec5286" fill-rule="nonzero" opacity="1" stroke="none"/>
<path d="M233.833 319.341C228.193 320.601 231.783 329.021 236.809 327.929C242.479 326.696 241.24 317.687 233.833 319.341Z" fill="#ec5286" fill-rule="nonzero" opacity="1" stroke="none"/>
<path d="M262.098 312.106C260.408 312.331 249.215 315.293 253.173 319.003C254.29 320.05 256.556 319.411 257.365 320.085C257.956 320.577 253.821 331.152 260.07 329.417C262.639 328.703 262.613 322.171 263.315 320.22C264.469 317.015 273.264 312.627 266.426 310.348" fill="#ec5286" fill-rule="nonzero" opacity="1" stroke="none"/>
<path d="M244.615 121.489C243.645 120.741 242.721 119.466 241.499 119.542C238.848 119.708 235.391 125.521 233.71 127.331C227.538 133.978 221.179 141.179 216.315 148.88C215.475 150.21 209.93 156.103 210.343 157.448C211.488 161.169 216.683 155.045 217.353 154.332C221.814 149.593 226 144.628 230.075 139.534C230.474 139.035 232.299 135.6 233.97 136.937C235.237 137.951 233.833 153.959 233.71 156.41C233.278 165.054 235.88 172.806 236.307 181.334C236.685 188.901 235.857 196.865 235.528 204.441C234.799 221.195 233.71 237.72 233.71 254.55C233.71 261.977 235.684 269.446 235.008 276.878C234.39 283.676 219.239 300.003 227.479 303.88C230.788 305.437 234.46 303.07 237.864 303.88C243.211 305.153 247.521 308.398 253.442 307.775C259.658 307.12 269.636 304.04 272.395 297.909C273.776 294.84 273.366 290.281 273.693 287.004C274.558 278.357 276.03 270.402 276.03 261.56C276.03 249.607 273.159 238.541 272.136 226.77C271.741 222.225 273.223 214.545 271.616 210.413C270.499 207.538 267.091 207.898 267.462 204.182C267.637 202.438 269.006 200.98 269.28 199.249C269.951 194.997 267.571 190.196 266.943 186.008C266.184 180.949 266.688 175.974 266.424 170.949C266.142 165.588 261.958 160.698 261.231 155.371C260.438 149.554 261.803 143.254 260.193 137.456C259.694 135.66 258.531 134.764 258.635 132.783C258.871 128.293 261.889 125.029 256.558 120.84C252.417 117.587 252.115 127.274 244.615 121.489Z" fill="#ec5286" fill-rule="nonzero" opacity="1" stroke="none"/>
<path d="M248.634 90.3963C248.035 87.6373 249.252 84.1582 248.194 81.5898C246.398 77.2266 240.908 79.6024 240.158 83.3511C239.296 87.6616 243.495 91.4975 244.121 95.46C244.743 99.3952 242.856 104.295 244.341 108.009C245.461 110.809 254.688 118.558 257.441 115.054C259.785 112.071 253.391 98.5729 251.387 95.9004" fill="#ec5286" fill-rule="nonzero" opacity="1" stroke="none"/>
<path d="M185.268 160.103C182.793 160.268 179.714 160.125 177.332 160.991C176.105 161.437 175.645 162.975 177.096 163.596C179.672 164.7 183.905 163.78 186.63 163.656C190.012 163.502 193.312 163.96 196.697 163.419C200.81 162.761 205.95 155.537 200.072 154.299C196.384 153.523 191.544 158.78 187.459 159.688" fill="#ec5286" fill-rule="nonzero" opacity="1" stroke="none"/>
<path d="M147.433 102.501C150.131 94.1071 149.371 84.0526 150.362 75.1333C150.459 74.2615 150.065 67.3105 151.068 67.2192C153.36 67.0109 150.725 77.8762 153.895 76.9705C154.401 76.8259 154.901 74.889 155.025 74.568C155.796 72.5862 156.999 71.0087 158.276 69.3391C162.053 64.3997 169.421 57.5236 175.941 56.9026C181.203 56.4015 189.556 59.1146 194.031 61.849C198.008 64.2793 201.291 71.3515 203.217 75.416C204.083 77.2446 206.259 90.2996 207.032 90.3962C209.376 90.6891 209.842 85.2223 210.283 83.7541C211.531 79.5931 213.238 70.6622 218.056 69.0564C221.861 67.7879 224.875 71.5016 227.948 72.7308C230.742 73.8482 233.79 73.7269 236.71 74.1441C239.064 74.4804 243.558 78.1917 242.646 73.8614C240.5 63.6668 226.825 55.8476 218.904 50.4018C215.166 47.8319 213.165 43.2504 210 40.0852C206.033 36.1184 200.263 35.0088 196.009 31.6058C194.081 30.0631 192.609 27.8996 190.215 26.9421C184.663 24.7213 176.965 30.0417 171.843 31.4645C162.347 34.1023 153.195 36.5701 145.415 43.053C137.065 50.0119 128.462 67.5554 125.489 77.9598C123.844 83.7169 121.263 97.3254 122.804 102.974C123.259 104.642 124.58 105.523 125.348 106.931C127.234 110.39 127.997 115.898 128.174 119.791C128.435 125.524 127.367 137.302 136.229 135.902C140.063 135.297 141.954 130.272 143.296 127.14C146.71 119.173 144.85 114.976 146.439 106.503" fill="#ec5286" fill-rule="nonzero" opacity="1" stroke="none"/>
<path d="M136.899 144.854C138.548 144.702 138.892 138.964 137.473 137.327C136.973 136.75 135.893 137.155 135.232 136.925C134.581 136.698 132.885 135.603 132.187 135.891C130.811 136.457 132.017 138.265 132.302 138.993C133.337 141.638 133.784 145.141 136.899 144.854Z" fill="#ec5286" fill-rule="nonzero" opacity="1" stroke="none"/>
<path d="M221.277 71.8894C219.849 71.9768 218.518 71.7304 217.188 72.5617C214.202 74.4275 213.923 79.362 213.154 82.3098C212.389 85.2406 210.473 88.6936 208.896 91.2736C206.548 95.1169 209.119 102.137 209.793 106.4C212.257 122.007 215.651 131.697 200.493 141.583C196.981 143.873 192.82 143.505 188.84 144.048C186.909 144.311 185.37 145.304 183.461 145.505C180.801 145.785 178.651 145.016 176.066 144.608C168.24 143.372 160.866 142.975 157.354 134.636C154.2 127.143 157.317 119.687 152.536 112.675C152.084 112.011 149.533 107.052 149.287 106.96C148.011 106.482 147.648 110.673 147.606 111.106C147.139 116.014 146.196 120.431 145.477 125.224C144.152 134.058 135.273 145.714 143.573 153.46C145.55 155.306 148.613 155.868 150.968 157.045C154.598 158.861 157.131 160.636 161.388 161.191C163.687 161.491 166.179 160.859 168.447 160.519C170.819 160.163 174.108 160.929 176.29 159.959C181.324 157.722 186.168 154.67 190.969 152.003C198.902 147.596 206.975 143.014 212.93 135.868C216.62 131.441 219.6 126.285 223.686 122.199C226.4 119.485 229.536 116.605 232.65 114.355C235.771 112.101 241.239 109.754 242.51 105.728C244.084 100.745 240.588 89.8056 237.132 86.1194C235.296 84.161 232.006 84.4927 230.073 82.4219C227.48 79.644 225.933 71.6046 221.277 71.8894Z" fill="#ec5286" fill-rule="nonzero" opacity="1" stroke="none"/>
</g>
</g>
</svg>
